<svg version="1.1" id="Layer_1" xmlns="http://www.w3.org/2000/svg" xmlns:xlink="http://www.w3.org/1999/xlink" x="0px" y="0px"
	 width="100%" viewBox="0 0 1125 2436" enable-background="new 0 0 1125 2436" xml:space="preserve">
<path fill="#FFFFFF" opacity="1.000000" stroke="none" 
	d="
M526.000000,2437.000000 
	C350.666656,2437.000000 175.833328,2437.000000 1.000000,2437.000000 
	C1.000000,1625.000000 1.000000,813.000000 1.000000,1.000000 
	C376.000000,1.000000 751.000000,1.000000 1126.000000,1.000000 
	C1126.000000,813.000000 1126.000000,1625.000000 1126.000000,2437.000000 
	C926.166687,2437.000000 726.333313,2437.000000 526.000000,2437.000000 
M878.985535,1252.166016 
	C878.985535,1004.902710 878.985535,757.639465 878.985535,510.193085 
	C657.191040,510.193085 435.799042,510.193085 213.999893,510.193085 
	C213.999893,512.166077 213.999924,513.953552 213.999924,515.740967 
	C213.999908,859.378845 213.999634,1203.016724 214.006622,1546.654663 
	C214.006653,1548.483765 214.108688,1550.312988 214.011444,1553.043213 
	C214.011444,1600.955688 214.011444,1648.868164 214.011444,1696.703979 
	C436.005737,1696.703979 657.364380,1696.703979 879.000000,1696.703979 
	C879.000000,1694.935303 879.000000,1693.460693 879.000000,1691.986084 
	C879.000000,1547.021606 879.000305,1402.057007 878.993103,1257.092529 
	C878.993042,1255.763794 878.890503,1254.434937 878.985535,1252.166016 
z"/>
<path fill="#000000" opacity="1.000000" stroke="none" 
	d="
M214.163086,1552.142090 
	C214.108688,1550.312988 214.006653,1548.483765 214.006622,1546.654663 
	C213.999634,1203.016724 213.999908,859.378845 213.999924,515.740967 
	C213.999924,513.953552 213.999893,512.166077 213.999893,510.193085 
	C435.799042,510.193085 657.191040,510.193085 878.985535,510.193085 
	C878.985535,757.639465 878.985535,1004.902710 878.579102,1252.721924 
	C871.202209,1256.417603 864.233826,1259.562134 857.260925,1262.696533 
	C825.115845,1277.145874 792.967957,1291.588867 760.824036,1306.040894 
	C728.675354,1320.495117 696.523438,1334.942261 664.385376,1349.420166 
	C631.643555,1364.170044 598.927795,1378.977905 566.180054,1393.714844 
	C534.799072,1407.836792 503.384247,1421.883667 471.998077,1435.994141 
	C439.544281,1450.584961 407.106537,1465.211548 374.662750,1479.824585 
	C342.378998,1494.365356 310.095642,1508.906860 277.813782,1523.451782 
	C256.595367,1533.011841 235.379868,1542.578369 214.163086,1552.142090 
M594.665161,1207.309692 
	C595.123230,1207.486938 595.581238,1207.664307 596.343201,1208.478760 
	C598.925232,1209.342285 601.494629,1210.903809 604.091370,1210.950562 
	C616.699158,1211.177856 629.314270,1210.989624 641.926758,1210.967651 
	C651.265076,1210.951416 660.603394,1210.964478 669.941772,1210.964478 
	C669.972595,1210.664795 670.003418,1210.365112 670.034241,1210.065308 
	C667.041931,1209.351440 664.049622,1208.637573 661.551331,1207.263794 
	C663.854919,1207.157227 666.177612,1207.189819 668.452698,1206.876465 
	C669.375000,1206.749512 670.398621,1206.017944 670.953247,1205.254272 
	C671.161011,1204.968262 670.160156,1203.814087 669.723328,1203.048218 
	C668.864563,1201.542236 667.399780,1200.078491 667.278809,1198.512939 
	C666.941101,1194.140869 667.161377,1189.725952 667.161377,1185.215942 
	C665.265564,1185.075928 664.098938,1184.783691 663.006409,1184.957397 
	C661.372253,1185.217041 659.790222,1185.804443 658.186035,1186.252563 
	C659.170227,1187.234863 660.168335,1188.203735 661.130676,1189.206909 
	C661.449768,1189.539551 661.900757,1189.954468 661.911194,1190.341919 
	C662.004456,1193.814209 662.273254,1197.318115 661.887329,1200.744873 
	C661.771729,1201.771484 659.594055,1202.446899 658.677734,1203.546997 
	C658.131653,1204.202637 658.201660,1205.371338 657.341553,1206.161133 
	C655.019531,1205.389526 652.697510,1204.618042 650.834045,1203.266357 
	C654.286682,1197.887573 654.053101,1193.732544 650.112549,1190.431885 
	C642.929932,1184.415527 630.625977,1188.680908 628.037964,1197.523071 
	C626.650269,1196.395142 625.262512,1195.267334 623.801941,1193.361084 
	C624.544312,1192.085083 625.356873,1190.844238 626.016479,1189.526855 
	C628.502686,1184.561523 626.646973,1177.616577 621.540344,1176.670044 
	C614.281982,1175.324707 606.725037,1175.552246 599.289429,1175.274170 
	C598.704834,1175.252441 597.671082,1176.486694 597.591919,1177.217773 
	C597.532288,1177.768921 598.569824,1178.622803 599.294739,1179.025757 
	C600.093201,1179.469482 601.092529,1179.551880 601.999084,1179.790283 
	C601.999084,1183.713501 601.999084,1187.361450 601.199890,1190.993652 
	C598.682739,1190.908203 596.125977,1191.071777 593.657532,1190.679688 
	C589.807739,1190.067993 586.017883,1189.079102 582.102783,1187.348511 
	C581.035278,1186.509766 580.016479,1185.027588 578.891846,1184.942261 
	C573.702759,1184.548950 568.621765,1185.525635 563.228882,1184.508179 
	C555.918701,1183.129517 549.659363,1189.640503 549.952087,1196.559204 
	C550.245239,1203.489990 556.842163,1208.439209 564.462891,1207.236206 
	C566.869507,1206.856323 569.183167,1205.887329 572.308044,1204.959717 
	C571.789124,1206.989990 571.868103,1209.085938 570.860046,1210.184448 
	C567.525085,1213.818726 563.336670,1213.527832 558.898376,1212.224976 
	C557.259888,1211.743896 555.276917,1212.436279 553.451050,1212.593628 
	C562.117981,1219.902222 573.250977,1217.635010 578.032349,1209.501221 
	C581.728943,1209.901367 585.435303,1210.649536 589.117737,1210.546143 
	C590.808228,1210.498657 592.451660,1208.778809 594.665161,1207.309692 
M386.676880,1203.110962 
	C386.910187,1204.374146 387.183868,1206.747314 387.370941,1206.740479 
	C394.645325,1206.475586 402.136444,1206.932617 409.113159,1205.263550 
	C415.489349,1203.738281 416.339142,1196.352783 411.501770,1191.775879 
	C410.806641,1191.118164 409.837006,1190.750610 408.994446,1190.248657 
	C409.662628,1190.070435 410.330811,1189.892212 410.998993,1189.713989 
	C411.353882,1186.660767 412.958893,1182.902100 411.737762,1180.738525 
	C410.307648,1178.204590 406.590118,1176.065430 403.554352,1175.536011 
	C398.534851,1174.660889 393.264679,1175.130249 388.105255,1175.251587 
	C387.336823,1175.269653 386.373749,1176.367310 385.957977,1177.195190 
	C385.802307,1177.505249 386.841553,1178.637085 387.534637,1179.090942 
	C388.269165,1179.571899 389.239838,1179.692139 390.211609,1180.003296 
	C390.211609,1186.792969 390.332916,1193.288086 390.093231,1199.769775 
	C390.052917,1200.859497 388.451843,1201.891724 386.676880,1203.110962 
M479.247345,1181.901733 
	C479.247345,1179.791870 479.247345,1177.681885 479.247345,1175.147583 
	C476.457489,1175.147583 474.142639,1174.993286 471.866882,1175.224487 
	C470.967590,1175.315674 470.155396,1176.265137 469.303558,1176.823853 
	C470.088318,1177.610107 470.792236,1178.510864 471.686188,1179.142700 
	C472.282745,1179.564331 473.149902,1179.603149 473.766632,1179.776855 
	C473.766632,1187.543091 473.766632,1194.991333 473.766632,1201.211914 
	C471.774261,1203.040405 470.537872,1204.175171 469.301514,1205.309814 
	C470.815979,1205.864746 472.294922,1206.719238 473.853333,1206.904053 
	C476.153992,1207.177002 478.529480,1207.144287 480.836090,1206.896851 
	C481.888947,1206.783813 482.853424,1205.847290 483.857941,1205.284302 
	C482.911163,1204.476318 481.992371,1203.631714 481.005676,1202.875732 
	C480.523651,1202.506470 479.915070,1202.302124 479.220825,1201.950928 
	C479.323578,1200.237183 479.416565,1198.685669 479.565277,1196.205200 
	C483.546906,1199.529663 486.647614,1202.538208 490.181061,1204.899536 
	C492.069763,1206.161621 494.678680,1206.474121 497.021210,1206.840454 
	C497.620880,1206.934326 498.700806,1205.710815 499.043579,1204.879517 
	C499.192810,1204.517700 498.159943,1203.412598 497.456146,1202.996948 
	C493.532227,1200.680664 489.544525,1198.472290 485.578705,1196.226929 
	C485.694611,1195.624146 485.810486,1195.021484 485.926392,1194.418823 
	C489.799225,1192.339478 493.684753,1190.283203 497.531830,1188.157471 
	C498.146484,1187.817749 498.588531,1187.165771 499.110352,1186.658203 
	C498.504211,1186.059082 497.931519,1184.988403 497.286163,1184.942505 
	C494.466827,1184.742432 491.618896,1184.715210 488.796967,1184.884766 
	C487.473114,1184.964478 486.184601,1185.631836 484.880035,1186.032715 
	C485.648743,1187.140015 486.417450,1188.247314 487.283386,1189.494751 
	C484.877380,1191.099731 482.487091,1192.694214 479.247559,1194.855347 
	C479.247559,1190.036743 479.247559,1186.421143 479.247345,1181.901733 
M685.526184,1202.871826 
	C685.118286,1199.016357 683.994141,1195.027466 684.674927,1191.375000 
	C684.927246,1190.020996 689.375854,1189.208984 692.013550,1188.776855 
	C692.451050,1188.705078 693.920654,1191.827393 694.041077,1193.535034 
	C694.341492,1197.798340 694.140015,1202.097046 694.140015,1206.968628 
	C696.998718,1206.968628 699.283936,1207.085083 701.545898,1206.906494 
	C702.355957,1206.842651 703.109802,1206.066162 703.889343,1205.614990 
	C703.382019,1204.743164 702.894043,1203.859497 702.363037,1203.002441 
	C701.546387,1201.684204 700.188782,1200.461670 699.976868,1199.060181 
	C699.583069,1196.455322 699.958252,1193.744629 699.815186,1191.088745 
	C699.623840,1187.536133 697.686340,1184.190430 694.276733,1184.537720 
	C688.049194,1185.171753 681.887390,1185.093872 675.683289,1185.111694 
	C675.281677,1185.112793 674.886108,1187.215210 674.487732,1188.340088 
	C681.357178,1190.170288 677.158875,1195.700562 678.029114,1199.486938 
	C678.244812,1200.425537 676.588928,1201.800781 675.780334,1202.966187 
	C675.205444,1203.794800 674.608521,1204.608154 674.021423,1205.428345 
	C674.751465,1205.937988 675.460388,1206.847534 676.215271,1206.887573 
	C679.368958,1207.054321 682.577820,1207.278198 685.687561,1206.874268 
	C688.959900,1206.449219 688.948303,1204.787109 685.526184,1202.871826 
M533.867981,1188.437256 
	C537.412170,1188.021851 538.076721,1190.200562 538.063293,1193.046875 
	C538.041748,1197.618042 538.057556,1202.189453 538.057556,1206.967529 
	C541.067932,1206.967529 543.238647,1207.132812 545.361938,1206.887451 
	C546.229919,1206.787231 547.256531,1205.941162 547.691040,1205.149292 
	C547.892822,1204.781616 546.877197,1203.112183 546.371460,1203.092163 
	C542.928162,1202.956177 543.571045,1200.519165 543.509705,1198.441650 
	C543.431274,1195.786743 543.404968,1193.129150 543.273865,1190.476929 
	C543.058594,1186.122559 540.076904,1183.431396 536.437256,1184.465210 
	C530.996399,1186.010986 525.847778,1184.968750 520.567200,1184.831665 
	C520.235291,1184.822998 519.828735,1184.716919 519.584351,1184.865601 
	C518.836914,1185.320435 518.151794,1185.877441 517.442444,1186.394775 
	C518.049927,1187.212402 518.516602,1188.229614 519.307251,1188.787720 
	C519.996033,1189.273682 521.050476,1189.241577 521.889648,1189.426636 
	C521.889648,1193.946533 521.889648,1198.067383 521.889648,1202.251343 
	C521.338928,1202.490601 520.869202,1202.617188 520.488159,1202.875000 
	C519.446228,1203.579834 518.441650,1204.339844 517.422241,1205.077881 
	C518.526855,1205.710205 519.600647,1206.812866 520.741760,1206.887695 
	C524.344421,1207.123657 527.972290,1206.974609 531.590393,1206.974609 
	C531.847534,1206.566650 532.104675,1206.158691 532.361755,1205.750732 
	C531.518921,1204.808594 530.750183,1203.782471 529.808228,1202.952881 
	C529.141113,1202.365234 527.847473,1202.242676 527.506409,1201.570801 
	C525.124756,1196.879395 528.001892,1190.414795 533.867981,1188.437256 
M455.042328,1184.311157 
	C450.000488,1184.017822 445.308624,1184.586914 442.381683,1189.712280 
	C444.651337,1189.966675 446.651581,1189.132080 448.699646,1188.990845 
	C451.207397,1188.817993 453.876740,1188.838623 456.224915,1189.575928 
	C457.147095,1189.865356 457.389282,1192.320312 457.936249,1193.776123 
	C453.644409,1193.776123 449.899902,1192.917725 446.904572,1194.046875 
	C444.493530,1194.955566 441.454071,1198.307373 441.510376,1200.503052 
	C441.567444,1202.727173 444.806610,1206.311401 447.137024,1206.755737 
	C453.274628,1207.925903 459.657745,1205.625488 465.981384,1206.855591 
	C466.371521,1206.931519 467.432587,1205.815674 467.395874,1205.311646 
	C467.337494,1204.510498 466.795441,1203.475098 466.131348,1203.055054 
	C465.275696,1202.513794 464.097839,1202.482056 463.012512,1202.219727 
	C463.012512,1199.168457 462.833557,1196.492310 463.050049,1193.848633 
	C463.491699,1188.455322 461.364258,1185.197754 455.042328,1184.311157 
M431.335327,1202.911255 
	C430.704498,1202.772583 429.748230,1202.849487 429.492004,1202.462769 
	C426.089569,1197.326782 429.738892,1189.573364 435.797119,1188.937622 
	C436.909424,1188.820679 438.023712,1188.722656 439.941742,1188.538818 
	C439.260620,1186.812866 438.617310,1184.501709 438.324799,1184.545288 
	C434.859863,1185.061401 431.447266,1185.928955 427.976379,1186.714355 
	C426.931458,1182.699585 423.027100,1185.494019 420.326477,1184.957275 
	C419.735413,1184.839844 418.859863,1186.153687 418.115387,1186.808350 
	C418.836670,1187.496826 419.460693,1188.366699 420.307709,1188.820801 
	C421.093842,1189.242310 422.118073,1189.219849 422.939362,1189.374390 
	C422.939362,1193.977295 422.939362,1198.230103 422.939362,1202.479492 
	C422.155396,1202.665649 421.621918,1202.669678 421.231934,1202.908325 
	C420.160248,1203.564331 419.148651,1204.318604 418.113281,1205.034058 
	C419.203674,1205.680664 420.260590,1206.805298 421.390778,1206.884644 
	C424.872498,1207.128540 428.387756,1207.079468 431.877197,1206.898315 
	C432.758362,1206.852417 433.591888,1205.889038 434.447296,1205.347168 
	C433.692108,1204.539062 432.936920,1203.730835 431.335327,1202.911255 
M709.470947,1203.542114 
	C711.090210,1207.678223 714.278564,1208.216553 718.009644,1207.069214 
	C718.718567,1206.851196 719.571960,1205.739380 719.583618,1205.027344 
	C719.593872,1204.401611 718.542603,1203.732910 717.916870,1203.128174 
	C716.915161,1202.160034 715.102844,1201.308472 714.996155,1200.267822 
	C714.629822,1196.693237 714.855469,1193.058228 714.855469,1190.398804 
	C717.034241,1188.882080 718.363770,1187.956421 719.693237,1187.030884 
	C718.331177,1185.933594 716.969116,1184.836426 715.017334,1183.264038 
	C714.912903,1182.268677 714.712708,1180.360352 714.349365,1176.896729 
	C711.036865,1180.513062 708.377930,1183.043945 706.324768,1185.996216 
	C705.949951,1186.535034 708.196655,1188.719604 708.938599,1190.284302 
	C709.332520,1191.114990 709.120117,1192.245117 709.136353,1193.240845 
	C709.187805,1196.400024 709.218079,1199.559570 709.470947,1203.542114 
M515.024231,1205.535400 
	C514.994324,1205.039673 515.085754,1204.157349 514.917053,1204.104492 
	C509.730499,1202.478027 511.102722,1198.232178 511.065796,1194.570923 
	C511.034485,1191.463867 511.059357,1188.356323 511.059357,1185.119385 
	C507.669525,1185.119385 504.921875,1185.119385 501.289612,1185.119385 
	C502.067322,1186.713867 502.294678,1188.112793 503.104980,1188.682495 
	C506.984955,1191.411133 507.067657,1200.475464 503.181976,1203.074219 
	C502.532043,1203.508911 501.872192,1204.642090 501.993561,1205.312012 
	C502.109985,1205.954712 503.238312,1206.881104 503.916931,1206.876953 
	C507.533234,1206.854492 511.147980,1206.578857 515.024231,1205.535400 
M667.649658,1176.704590 
	C665.826050,1176.373535 664.002441,1176.042480 662.178711,1175.711426 
	C662.275635,1176.825317 662.372559,1177.939331 662.469482,1179.053345 
	C664.150940,1178.822754 665.835938,1178.612915 667.507263,1178.323975 
	C667.646851,1178.299683 667.694031,1177.741455 667.649658,1176.704590 
M505.736023,1178.795410 
	C507.497925,1178.577881 509.259857,1178.360474 511.021820,1178.143066 
	C510.484009,1177.113037 510.140442,1175.400269 509.371704,1175.181641 
	C507.113342,1174.539062 505.048126,1174.967773 505.736023,1178.795410 
z"/>
<path fill="#DE161D" opacity="1.000000" stroke="none" 
	d="
M214.087280,1552.592651 
	C235.379868,1542.578369 256.595367,1533.011841 277.813782,1523.451782 
	C310.095642,1508.906860 342.378998,1494.365356 374.662750,1479.824585 
	C407.106537,1465.211548 439.544281,1450.584961 471.998077,1435.994141 
	C503.384247,1421.883667 534.799072,1407.836792 566.180054,1393.714844 
	C598.927795,1378.977905 631.643555,1364.170044 664.385376,1349.420166 
	C696.523438,1334.942261 728.675354,1320.495117 760.824036,1306.040894 
	C792.967957,1291.588867 825.115845,1277.145874 857.260925,1262.696533 
	C864.233826,1259.562134 871.202209,1256.417603 878.504272,1253.192139 
	C878.890503,1254.434937 878.993042,1255.763794 878.993103,1257.092529 
	C879.000305,1402.057007 879.000000,1547.021606 879.000000,1691.986084 
	C879.000000,1693.460693 879.000000,1694.935303 879.000000,1696.703979 
	C657.364380,1696.703979 436.005737,1696.703979 214.011444,1696.703979 
	C214.011444,1648.868164 214.011444,1600.955688 214.087280,1552.592651 
z"/>
<path fill="#EEEDED" opacity="1.000000" stroke="none" 
	d="
M623.874817,1194.139404 
	C625.262512,1195.267334 626.650269,1196.395142 628.499573,1197.892090 
	C630.147461,1199.239380 631.333740,1200.217651 632.500183,1201.458374 
	C632.781128,1201.826294 633.081970,1201.931885 633.418396,1202.437012 
	C636.913452,1206.798218 641.421753,1206.597168 646.394287,1205.962280 
	C647.295349,1204.948120 647.830688,1203.976562 648.568848,1203.135986 
	C649.306152,1203.460327 649.840820,1203.653442 650.375488,1203.846558 
	C652.697510,1204.618042 655.019531,1205.389526 657.831055,1206.490967 
	C659.232849,1207.188477 660.145142,1207.556152 661.057373,1207.923706 
	C664.049622,1208.637573 667.041931,1209.351440 670.034241,1210.065308 
	C670.003418,1210.365112 669.972595,1210.664795 669.941772,1210.964478 
	C660.603394,1210.964478 651.265076,1210.951416 641.926758,1210.967651 
	C629.314270,1210.989624 616.699158,1211.177856 604.091370,1210.950562 
	C601.494629,1210.903809 598.925232,1209.342285 596.179932,1207.896729 
	C596.479370,1206.868774 596.942078,1206.422852 597.731079,1206.307129 
	C602.339355,1206.718994 606.622498,1206.872314 610.902283,1206.808350 
	C611.576599,1206.798340 612.236206,1205.805176 612.902588,1205.266602 
	C612.283508,1204.514648 611.793457,1203.550659 611.007751,1203.072021 
	C610.266907,1202.620972 609.214844,1202.680786 608.309753,1202.517700 
	C608.309753,1199.917236 608.309753,1197.657349 608.309753,1194.999390 
	C613.623047,1194.705811 618.748962,1194.422729 623.874817,1194.139404 
z"/>
<path fill="#DD1818" opacity="1.000000" stroke="none" 
	d="
M387.124420,1203.030762 
	C388.451843,1201.891724 390.052917,1200.859497 390.093231,1199.769775 
	C390.332916,1193.288086 390.211609,1186.792969 390.211609,1180.003296 
	C389.239838,1179.692139 388.269165,1179.571899 387.534637,1179.090942 
	C386.841553,1178.637085 385.802307,1177.505249 385.957977,1177.195190 
	C386.373749,1176.367310 387.336823,1175.269653 388.105255,1175.251587 
	C393.264679,1175.130249 398.534851,1174.660889 403.554352,1175.536011 
	C406.590118,1176.065430 410.307648,1178.204590 411.737762,1180.738525 
	C412.958893,1182.902100 411.353882,1186.660767 410.998993,1189.713989 
	C410.330811,1189.892212 409.662628,1190.070435 408.994446,1190.248657 
	C409.837006,1190.750610 410.806641,1191.118164 411.501770,1191.775879 
	C416.339142,1196.352783 415.489349,1203.738281 409.113159,1205.263550 
	C402.136444,1206.932617 394.645325,1206.475586 387.370941,1206.740479 
	C387.183868,1206.747314 386.910187,1204.374146 387.124420,1203.030762 
M407.814453,1200.359497 
	C407.684784,1198.389282 408.169861,1195.076660 407.316864,1194.686035 
	C403.987762,1193.161377 400.235016,1192.561890 396.468201,1191.573364 
	C396.468201,1196.272461 396.468201,1199.481201 396.468201,1203.786133 
	C400.517761,1202.727173 403.914551,1201.838867 407.814453,1200.359497 
M405.800171,1186.527710 
	C405.780304,1184.714111 406.369690,1181.672119 405.631775,1181.306030 
	C402.892242,1179.947144 399.715759,1179.469116 396.312622,1178.555298 
	C396.312622,1182.455200 396.312622,1185.035278 396.312622,1188.482666 
	C399.513855,1187.962769 402.348633,1187.502319 405.800171,1186.527710 
z"/>
<path fill="#DD1818" opacity="1.000000" stroke="none" 
	d="
M577.294312,1209.231689 
	C573.250977,1217.635010 562.117981,1219.902222 553.451050,1212.593628 
	C555.276917,1212.436279 557.259888,1211.743896 558.898376,1212.224976 
	C563.336670,1213.527832 567.525085,1213.818726 570.860046,1210.184448 
	C571.868103,1209.085938 571.789124,1206.989990 572.308044,1204.959717 
	C569.183167,1205.887329 566.869507,1206.856323 564.462891,1207.236206 
	C556.842163,1208.439209 550.245239,1203.489990 549.952087,1196.559204 
	C549.659363,1189.640503 555.918701,1183.129517 563.228882,1184.508179 
	C568.621765,1185.525635 573.702759,1184.548950 578.891846,1184.942261 
	C580.016479,1185.027588 581.035278,1186.509766 581.865479,1188.036865 
	C578.555908,1189.083252 576.963989,1190.435425 577.301025,1193.895020 
	C577.682861,1197.815796 577.564514,1201.785278 577.481689,1206.048340 
	C577.298035,1207.319214 577.296204,1208.275391 577.294312,1209.231689 
M568.015991,1202.129883 
	C572.034058,1200.385010 572.912659,1197.311646 571.518799,1192.796997 
	C567.756775,1188.099365 563.504944,1187.010010 559.145142,1189.653076 
	C555.369141,1191.942383 554.895325,1195.400391 556.288940,1199.114136 
	C557.689880,1202.847778 562.035095,1203.964722 568.015991,1202.129883 
z"/>
<path fill="#585656" opacity="1.000000" stroke="none" 
	d="
M623.838379,1193.750244 
	C618.748962,1194.422729 613.623047,1194.705811 608.309753,1194.999390 
	C608.309753,1197.657349 608.309753,1199.917236 608.309753,1202.517700 
	C609.214844,1202.680786 610.266907,1202.620972 611.007751,1203.072021 
	C611.793457,1203.550659 612.283508,1204.514648 612.902588,1205.266602 
	C612.236206,1205.805176 611.576599,1206.798340 610.902283,1206.808350 
	C606.622498,1206.872314 602.339355,1206.718994 597.845886,1205.881104 
	C598.939209,1204.036499 600.243896,1202.948120 601.999084,1201.484009 
	C601.999084,1198.546875 601.999084,1194.778076 601.999084,1191.009399 
	C601.999084,1187.361450 601.999084,1183.713501 601.999084,1179.790283 
	C601.092529,1179.551880 600.093201,1179.469482 599.294739,1179.025757 
	C598.569824,1178.622803 597.532288,1177.768921 597.591919,1177.217773 
	C597.671082,1176.486694 598.704834,1175.252441 599.289429,1175.274170 
	C606.725037,1175.552246 614.281982,1175.324707 621.540344,1176.670044 
	C626.646973,1177.616577 628.502686,1184.561523 626.016479,1189.526855 
	C625.356873,1190.844238 624.544312,1192.085083 623.838379,1193.750244 
M615.735046,1179.399292 
	C613.330994,1179.399292 610.926941,1179.399292 608.451843,1179.399292 
	C608.451843,1183.202515 608.451843,1186.571777 608.451843,1189.997803 
	C610.751465,1189.997803 612.681213,1189.989380 614.610840,1189.999756 
	C617.522217,1190.015503 620.452942,1190.000488 620.994385,1186.164673 
	C621.484558,1182.692017 620.158569,1180.359375 615.735046,1179.399292 
z"/>
<path fill="#DD1818" opacity="1.000000" stroke="none" 
	d="
M479.247437,1182.353516 
	C479.247559,1186.421143 479.247559,1190.036743 479.247559,1194.855347 
	C482.487091,1192.694214 484.877380,1191.099731 487.283386,1189.494751 
	C486.417450,1188.247314 485.648743,1187.140015 484.880066,1186.032715 
	C486.184601,1185.631836 487.473114,1184.964478 488.796967,1184.884766 
	C491.618896,1184.715210 494.466827,1184.742432 497.286163,1184.942505 
	C497.931519,1184.988403 498.504211,1186.059082 499.110352,1186.658203 
	C498.588531,1187.165771 498.146484,1187.817749 497.531830,1188.157471 
	C493.684753,1190.283203 489.799225,1192.339478 485.926392,1194.418823 
	C485.810486,1195.021484 485.694611,1195.624146 485.578705,1196.226929 
	C489.544525,1198.472290 493.532227,1200.680664 497.456146,1202.996948 
	C498.159943,1203.412598 499.192810,1204.517700 499.043579,1204.879517 
	C498.700806,1205.710815 497.620880,1206.934326 497.021210,1206.840454 
	C494.678680,1206.474121 492.069763,1206.161621 490.181061,1204.899536 
	C486.647614,1202.538208 483.546906,1199.529663 479.565277,1196.205200 
	C479.416565,1198.685669 479.323578,1200.237183 479.220825,1201.950928 
	C479.915070,1202.302124 480.523651,1202.506470 481.005676,1202.875732 
	C481.992371,1203.631714 482.911163,1204.476318 483.857971,1205.284302 
	C482.853424,1205.847290 481.888947,1206.783813 480.836090,1206.896851 
	C478.529480,1207.144287 476.153992,1207.177002 473.853333,1206.904053 
	C472.294922,1206.719238 470.815979,1205.864746 469.301514,1205.309814 
	C470.537872,1204.175171 471.774261,1203.040405 473.766632,1201.211914 
	C473.766632,1194.991333 473.766632,1187.543091 473.766632,1179.776855 
	C473.149902,1179.603149 472.282745,1179.564331 471.686188,1179.142700 
	C470.792236,1178.510864 470.088318,1177.610107 469.303558,1176.823853 
	C470.155396,1176.265137 470.967590,1175.315674 471.866882,1175.224487 
	C474.142639,1174.993286 476.457489,1175.147583 479.247345,1175.147583 
	C479.247345,1177.681885 479.247345,1179.791870 479.247437,1182.353516 
z"/>
<path fill="#FFFFFF" opacity="1.000000" stroke="none" 
	d="
M601.599487,1191.001465 
	C601.999084,1194.778076 601.999084,1198.546875 601.999084,1201.484009 
	C600.243896,1202.948120 598.939209,1204.036499 597.519653,1205.550903 
	C596.942078,1206.422852 596.479370,1206.868774 596.027954,1207.578125 
	C595.581238,1207.664307 595.123230,1207.486938 594.355347,1207.621826 
	C594.045471,1207.933838 594.160095,1208.007812 594.437012,1207.668945 
	C594.165405,1206.689087 593.616882,1206.048218 593.218506,1205.075684 
	C593.022888,1203.591431 592.677063,1202.438965 592.093201,1200.492798 
	C588.061584,1205.812134 583.180420,1206.823730 577.663574,1205.733643 
	C577.564514,1201.785278 577.682861,1197.815796 577.301025,1193.895020 
	C576.963989,1190.435425 578.555908,1189.083252 581.915344,1188.487793 
	C586.017883,1189.079102 589.807739,1190.067993 593.657532,1190.679688 
	C596.125977,1191.071777 598.682739,1190.908203 601.599487,1191.001465 
z"/>
<path fill="#515050" opacity="1.000000" stroke="none" 
	d="
M685.951904,1202.927979 
	C688.948303,1204.787109 688.959900,1206.449219 685.687561,1206.874268 
	C682.577820,1207.278198 679.368958,1207.054321 676.215271,1206.887573 
	C675.460388,1206.847534 674.751465,1205.937988 674.021484,1205.428345 
	C674.608521,1204.608154 675.205444,1203.794800 675.780334,1202.966187 
	C676.588928,1201.800781 678.244812,1200.425537 678.029114,1199.486938 
	C677.158875,1195.700562 681.357178,1190.170288 674.487732,1188.340088 
	C674.886108,1187.215210 675.281677,1185.112793 675.683289,1185.111694 
	C681.887390,1185.093872 688.049194,1185.171753 694.276733,1184.537720 
	C697.686340,1184.190430 699.623840,1187.536133 699.815186,1191.088745 
	C699.958252,1193.744629 699.583069,1196.455322 699.976868,1199.060181 
	C700.188782,1200.461670 701.546387,1201.684204 702.363037,1203.002441 
	C702.894043,1203.859497 703.382019,1204.743164 703.889343,1205.614990 
	C703.109802,1206.066162 702.355957,1206.842651 701.545898,1206.906494 
	C699.283936,1207.085083 696.998718,1206.968628 694.140015,1206.968628 
	C694.140015,1202.097046 694.341492,1197.798340 694.041077,1193.535034 
	C693.920654,1191.827393 692.451050,1188.705078 692.013550,1188.776855 
	C689.375854,1189.208984 684.927246,1190.020996 684.674927,1191.375000 
	C683.994141,1195.027466 685.118286,1199.016357 685.951904,1202.927979 
z"/>
<path fill="#DD1818" opacity="1.000000" stroke="none" 
	d="
M533.494507,1188.543457 
	C528.001892,1190.414795 525.124756,1196.879395 527.506409,1201.570801 
	C527.847473,1202.242676 529.141113,1202.365234 529.808228,1202.952881 
	C530.750183,1203.782471 531.518921,1204.808594 532.361755,1205.750732 
	C532.104675,1206.158691 531.847534,1206.566650 531.590393,1206.974609 
	C527.972290,1206.974609 524.344421,1207.123657 520.741760,1206.887695 
	C519.600647,1206.812866 518.526855,1205.710205 517.422241,1205.077881 
	C518.441650,1204.339844 519.446228,1203.579834 520.488159,1202.875000 
	C520.869202,1202.617188 521.338928,1202.490601 521.889648,1202.251343 
	C521.889648,1198.067383 521.889648,1193.946533 521.889648,1189.426636 
	C521.050476,1189.241577 519.996033,1189.273682 519.307251,1188.787720 
	C518.516602,1188.229614 518.049927,1187.212402 517.442444,1186.394775 
	C518.151794,1185.877441 518.836914,1185.320435 519.584351,1184.865601 
	C519.828735,1184.716919 520.235291,1184.822998 520.567200,1184.831665 
	C525.847778,1184.968750 530.996399,1186.010986 536.437256,1184.465210 
	C540.076904,1183.431396 543.058594,1186.122559 543.273865,1190.476929 
	C543.404968,1193.129150 543.431274,1195.786743 543.509705,1198.441650 
	C543.571045,1200.519165 542.928162,1202.956177 546.371460,1203.092163 
	C546.877197,1203.112183 547.892822,1204.781616 547.691040,1205.149292 
	C547.256531,1205.941162 546.229919,1206.787231 545.361938,1206.887451 
	C543.238647,1207.132812 541.067932,1206.967529 538.057556,1206.967529 
	C538.057556,1202.189453 538.041748,1197.618042 538.063293,1193.046875 
	C538.076721,1190.200562 537.412170,1188.021851 533.494507,1188.543457 
z"/>
<path fill="#DD1818" opacity="1.000000" stroke="none" 
	d="
M455.447693,1184.376953 
	C461.364258,1185.197754 463.491699,1188.455322 463.050049,1193.848633 
	C462.833557,1196.492310 463.012512,1199.168457 463.012512,1202.219727 
	C464.097839,1202.482056 465.275696,1202.513794 466.131348,1203.055054 
	C466.795441,1203.475098 467.337494,1204.510498 467.395874,1205.311646 
	C467.432587,1205.815674 466.371521,1206.931519 465.981384,1206.855591 
	C459.657745,1205.625488 453.274628,1207.925903 447.137024,1206.755737 
	C444.806610,1206.311401 441.567444,1202.727173 441.510376,1200.503052 
	C441.454071,1198.307373 444.493530,1194.955566 446.904572,1194.046875 
	C449.899902,1192.917725 453.644409,1193.776123 457.936249,1193.776123 
	C457.389282,1192.320312 457.147095,1189.865356 456.224915,1189.575928 
	C453.876740,1188.838623 451.207397,1188.817993 448.699646,1188.990845 
	C446.651581,1189.132080 444.651337,1189.966675 442.381683,1189.712280 
	C445.308624,1184.586914 450.000488,1184.017822 455.447693,1184.376953 
M448.311554,1197.228271 
	C447.806915,1198.873291 447.302277,1200.518433 446.797699,1202.163452 
	C449.196320,1202.609619 451.668091,1203.604858 453.966614,1203.298950 
	C455.380249,1203.110596 456.529175,1200.933350 457.796906,1199.649292 
	C455.872589,1198.673828 454.000793,1197.562744 451.998718,1196.788452 
	C451.174286,1196.469849 450.069580,1196.875732 448.311554,1197.228271 
z"/>
<path fill="#DD1818" opacity="1.000000" stroke="none" 
	d="
M431.758545,1202.916992 
	C432.936920,1203.730835 433.692108,1204.539062 434.447296,1205.347168 
	C433.591888,1205.889038 432.758362,1206.852417 431.877197,1206.898315 
	C428.387756,1207.079468 424.872498,1207.128540 421.390778,1206.884644 
	C420.260590,1206.805298 419.203674,1205.680664 418.113281,1205.034058 
	C419.148651,1204.318604 420.160248,1203.564331 421.231934,1202.908325 
	C421.621918,1202.669678 422.155396,1202.665649 422.939362,1202.479492 
	C422.939362,1198.230103 422.939362,1193.977295 422.939362,1189.374390 
	C422.118073,1189.219849 421.093842,1189.242310 420.307709,1188.820801 
	C419.460693,1188.366699 418.836670,1187.496826 418.115356,1186.808350 
	C418.859863,1186.153687 419.735413,1184.839844 420.326477,1184.957275 
	C423.027100,1185.494019 426.931458,1182.699585 427.976379,1186.714355 
	C431.447266,1185.928955 434.859863,1185.061401 438.324799,1184.545288 
	C438.617310,1184.501709 439.260620,1186.812866 439.941742,1188.538818 
	C438.023712,1188.722656 436.909424,1188.820679 435.797119,1188.937622 
	C429.738892,1189.573364 426.089569,1197.326782 429.492004,1202.462769 
	C429.748230,1202.849487 430.704498,1202.772583 431.758545,1202.916992 
z"/>
<path fill="#515050" opacity="1.000000" stroke="none" 
	d="
M709.363770,1203.130615 
	C709.218079,1199.559570 709.187805,1196.400024 709.136353,1193.240845 
	C709.120117,1192.245117 709.332520,1191.114990 708.938599,1190.284302 
	C708.196655,1188.719604 705.949951,1186.535034 706.324768,1185.996216 
	C708.377930,1183.043945 711.036865,1180.513062 714.349365,1176.896729 
	C714.712708,1180.360352 714.912903,1182.268677 715.017334,1183.264038 
	C716.969116,1184.836426 718.331177,1185.933594 719.693237,1187.030884 
	C718.363770,1187.956421 717.034241,1188.882080 714.855469,1190.398804 
	C714.855469,1193.058228 714.629822,1196.693237 714.996155,1200.267822 
	C715.102844,1201.308472 716.915161,1202.160034 717.916870,1203.128174 
	C718.542603,1203.732910 719.593872,1204.401611 719.583618,1205.027344 
	C719.571960,1205.739380 718.718567,1206.851196 718.009644,1207.069214 
	C714.278564,1208.216553 711.090210,1207.678223 709.363770,1203.130615 
z"/>
<path fill="#585656" opacity="1.000000" stroke="none" 
	d="
M661.304321,1207.593750 
	C660.145142,1207.556152 659.232849,1207.188477 658.157593,1206.565186 
	C658.201660,1205.371338 658.131653,1204.202637 658.677734,1203.546997 
	C659.594055,1202.446899 661.771729,1201.771484 661.887329,1200.744873 
	C662.273254,1197.318115 662.004456,1193.814209 661.911194,1190.341919 
	C661.900757,1189.954468 661.449768,1189.539551 661.130676,1189.206909 
	C660.168335,1188.203735 659.170227,1187.234863 658.186035,1186.252563 
	C659.790222,1185.804443 661.372253,1185.217041 663.006409,1184.957397 
	C664.098938,1184.783691 665.265564,1185.075928 667.161377,1185.215942 
	C667.161377,1189.725952 666.941101,1194.140869 667.278809,1198.512939 
	C667.399780,1200.078491 668.864563,1201.542236 669.723328,1203.048218 
	C670.160156,1203.814087 671.161011,1204.968262 670.953247,1205.254272 
	C670.398621,1206.017944 669.375000,1206.749512 668.452698,1206.876465 
	C666.177612,1207.189819 663.854919,1207.157227 661.304321,1207.593750 
z"/>
<path fill="#DD1818" opacity="1.000000" stroke="none" 
	d="
M514.893738,1205.963135 
	C511.147980,1206.578857 507.533234,1206.854492 503.916931,1206.876953 
	C503.238312,1206.881104 502.109985,1205.954712 501.993561,1205.312012 
	C501.872192,1204.642090 502.532043,1203.508911 503.181976,1203.074219 
	C507.067657,1200.475464 506.984955,1191.411133 503.104980,1188.682495 
	C502.294678,1188.112793 502.067322,1186.713867 501.289612,1185.119385 
	C504.921875,1185.119385 507.669525,1185.119385 511.059357,1185.119385 
	C511.059357,1188.356323 511.034485,1191.463867 511.065796,1194.570923 
	C511.102722,1198.232178 509.730499,1202.478027 514.917053,1204.104492 
	C515.085754,1204.157349 514.994324,1205.039673 514.893738,1205.963135 
z"/>
<path fill="#DE161D" opacity="1.000000" stroke="none" 
	d="
M632.520020,1201.195923 
	C631.333740,1200.217651 630.147461,1199.239380 628.880493,1198.040771 
	C630.625977,1188.680908 642.929932,1184.415527 650.112549,1190.431885 
	C654.053101,1193.732544 654.286682,1197.887573 650.604736,1203.556396 
	C649.840820,1203.653442 649.306152,1203.460327 648.547607,1203.101929 
	C648.323730,1202.936768 648.350281,1202.865601 648.581482,1202.517334 
	C649.146362,1199.268433 650.555298,1195.924683 649.581665,1193.563110 
	C647.761780,1189.148560 640.583374,1187.950806 635.577332,1190.373779 
	C631.252625,1192.467041 630.507507,1195.104736 632.520020,1201.195923 
z"/>
<path fill="#BEAEAE" opacity="1.000000" stroke="none" 
	d="
M577.481689,1206.048340 
	C583.180420,1206.823730 588.061584,1205.812134 592.093201,1200.492798 
	C592.677063,1202.438965 593.022888,1203.591431 592.932007,1205.431152 
	C593.050232,1206.748169 593.605164,1207.378052 594.160095,1208.007812 
	C594.160095,1208.007812 594.045471,1207.933838 594.080933,1207.875732 
	C592.451660,1208.778809 590.808228,1210.498657 589.117737,1210.546143 
	C585.435303,1210.649536 581.728943,1209.901367 577.663330,1209.366455 
	C577.296204,1208.275391 577.298035,1207.319214 577.481689,1206.048340 
z"/>
<path fill="#515050" opacity="1.000000" stroke="none" 
	d="
M667.716919,1177.067871 
	C667.694031,1177.741455 667.646851,1178.299683 667.507263,1178.323975 
	C665.835938,1178.612915 664.150940,1178.822754 662.469482,1179.053223 
	C662.372559,1177.939331 662.275635,1176.825317 662.178711,1175.711426 
	C664.002441,1176.042480 665.826050,1176.373535 667.716919,1177.067871 
z"/>
<path fill="#DD1818" opacity="1.000000" stroke="none" 
	d="
M505.524292,1178.474609 
	C505.048126,1174.967773 507.113342,1174.539062 509.371704,1175.181641 
	C510.140442,1175.400269 510.484009,1177.113037 511.021790,1178.143066 
	C509.259857,1178.360474 507.497925,1178.577881 505.524292,1178.474609 
z"/>
<path fill="#585656" opacity="1.000000" stroke="none" 
	d="
M632.500122,1201.458374 
	C630.507507,1195.104736 631.252625,1192.467041 635.577332,1190.373779 
	C640.583374,1187.950806 647.761780,1189.148560 649.581665,1193.563110 
	C650.555298,1195.924683 649.146362,1199.268433 648.159424,1202.209229 
	C647.005249,1201.778564 646.504395,1201.307617 646.026855,1200.549438 
	C647.712463,1194.840088 646.009277,1192.277832 640.793945,1192.797607 
	C640.326233,1192.870239 640.145081,1192.931274 639.587280,1192.998047 
	C637.840820,1194.171631 636.471008,1195.339722 635.101196,1196.507690 
	C635.846619,1197.267334 636.592041,1198.027100 637.307251,1198.830322 
	C637.277039,1198.874023 637.219238,1198.785034 637.168579,1199.160645 
	C638.657532,1200.377075 640.197144,1201.218140 642.201599,1202.133667 
	C643.287354,1202.144043 643.908203,1202.080078 644.509705,1202.012695 
	C644.490295,1202.009155 644.456848,1201.989502 644.548401,1202.274414 
	C644.725464,1202.739502 644.810913,1202.919678 644.543335,1203.255005 
	C640.587769,1202.952515 636.985352,1202.494873 633.382874,1202.037354 
	C633.081970,1201.931885 632.781128,1201.826294 632.500122,1201.458374 
z"/>
<path fill="#000000" opacity="1.000000" stroke="none" 
	d="
M633.418396,1202.437012 
	C636.985352,1202.494873 640.587769,1202.952515 644.899780,1203.433594 
	C645.749023,1204.306396 645.888794,1205.155518 646.028564,1206.004761 
	C641.421753,1206.597168 636.913452,1206.798218 633.418396,1202.437012 
z"/>
<path fill="#BEAEAE" opacity="1.000000" stroke="none" 
	d="
M646.394287,1205.962280 
	C645.888794,1205.155518 645.749023,1204.306396 645.252808,1203.278564 
	C644.810913,1202.919678 644.725464,1202.739502 644.911865,1201.954590 
	C645.457092,1201.178955 645.730286,1201.007812 646.003540,1200.836548 
	C646.504395,1201.307617 647.005249,1201.778564 647.928223,1202.557617 
	C648.350281,1202.865601 648.323730,1202.936768 648.344910,1202.970947 
	C647.830688,1203.976562 647.295349,1204.948120 646.394287,1205.962280 
z"/>
<path fill="#000000" opacity="1.000000" stroke="none" 
	d="
M407.562927,1200.655029 
	C403.914551,1201.838867 400.517761,1202.727173 396.468201,1203.786133 
	C396.468201,1199.481201 396.468201,1196.272461 396.468201,1191.573364 
	C400.235016,1192.561890 403.987762,1193.161377 407.316864,1194.686035 
	C408.169861,1195.076660 407.684784,1198.389282 407.562927,1200.655029 
z"/>
<path fill="#000000" opacity="1.000000" stroke="none" 
	d="
M405.491821,1186.784912 
	C402.348633,1187.502319 399.513855,1187.962769 396.312622,1188.482666 
	C396.312622,1185.035278 396.312622,1182.455200 396.312622,1178.555298 
	C399.715759,1179.469116 402.892242,1179.947144 405.631775,1181.306030 
	C406.369690,1181.672119 405.780304,1184.714111 405.491821,1186.784912 
z"/>
<path fill="#000000" opacity="1.000000" stroke="none" 
	d="
M567.318542,1202.317627 
	C562.035095,1203.964722 557.689880,1202.847778 556.288940,1199.114136 
	C554.895325,1195.400391 555.369141,1191.942383 559.145142,1189.653076 
	C563.504944,1187.010010 567.756775,1188.099365 571.291748,1193.211426 
	C565.004333,1196.182007 564.362427,1197.671387 567.318542,1202.317627 
z"/>
<path fill="#EEEDED" opacity="1.000000" stroke="none" 
	d="
M567.667236,1202.223755 
	C564.362427,1197.671387 565.004333,1196.182007 571.395142,1193.494873 
	C572.912659,1197.311646 572.034058,1200.385010 567.667236,1202.223755 
z"/>
<path fill="#000000" opacity="1.000000" stroke="none" 
	d="
M616.138184,1179.520142 
	C620.158569,1180.359375 621.484558,1182.692017 620.994385,1186.164673 
	C620.452942,1190.000488 617.522217,1190.015503 614.610840,1189.999756 
	C612.681213,1189.989380 610.751465,1189.997803 608.451843,1189.997803 
	C608.451843,1186.571777 608.451843,1183.202515 608.451843,1179.399292 
	C610.926941,1179.399292 613.330994,1179.399292 616.138184,1179.520142 
z"/>
<path fill="#000000" opacity="1.000000" stroke="none" 
	d="
M594.437012,1207.668945 
	C593.605164,1207.378052 593.050232,1206.748169 592.781860,1205.762939 
	C593.616882,1206.048218 594.165405,1206.689087 594.437012,1207.668945 
z"/>
<path fill="#000000" opacity="1.000000" stroke="none" 
	d="
M448.701965,1197.090210 
	C450.069580,1196.875732 451.174286,1196.469849 451.998718,1196.788452 
	C454.000793,1197.562744 455.872589,1198.673828 457.796936,1199.649170 
	C456.529175,1200.933350 455.380249,1203.110596 453.966614,1203.298950 
	C451.668091,1203.604858 449.196320,1202.609619 446.797668,1202.163452 
	C447.302277,1200.518433 447.806915,1198.873291 448.701965,1197.090210 
z"/>
<path fill="#BEAEAE" opacity="1.000000" stroke="none" 
	d="
M644.529114,1202.016113 
	C643.908203,1202.080078 643.287354,1202.144043 642.152344,1201.812744 
	C640.165222,1200.539917 638.692261,1199.662476 637.219238,1198.784912 
	C637.219238,1198.785034 637.277039,1198.874023 637.428467,1198.548706 
	C638.374573,1196.479736 639.169250,1194.735962 639.963928,1192.992310 
	C640.145081,1192.931274 640.326233,1192.870239 641.082458,1193.015625 
	C643.215698,1194.999756 645.208130,1196.598389 643.162781,1199.384277 
	C642.903870,1199.737061 644.039551,1201.113647 644.529114,1202.016113 
z"/>
<path fill="#515050" opacity="1.000000" stroke="none" 
	d="
M644.509705,1202.012573 
	C644.039551,1201.113647 642.903870,1199.737061 643.162781,1199.384277 
	C645.208130,1196.598389 643.215698,1194.999756 641.368958,1193.004150 
	C646.009277,1192.277832 647.712463,1194.840088 646.026855,1200.549438 
	C645.730286,1201.007812 645.457092,1201.178955 644.820312,1201.669800 
	C644.456848,1201.989502 644.490295,1202.009155 644.509705,1202.012573 
z"/>
<path fill="#515050" opacity="1.000000" stroke="none" 
	d="
M639.587280,1192.998047 
	C639.169250,1194.735962 638.374573,1196.479736 637.458618,1198.505127 
	C636.592041,1198.027100 635.846619,1197.267334 635.101196,1196.507690 
	C636.471008,1195.339722 637.840820,1194.171631 639.587280,1192.998047 
z"/>
<path fill="#515050" opacity="1.000000" stroke="none" 
	d="
M637.168579,1199.160522 
	C638.692261,1199.662476 640.165222,1200.539917 641.687500,1201.738281 
	C640.197144,1201.218140 638.657532,1200.377075 637.168579,1199.160522 
z"/>
</svg>