<svg version="1.1" id="Layer_1" xmlns="http://www.w3.org/2000/svg" xmlns:xlink="http://www.w3.org/1999/xlink" x="0px" y="0px"
	 width="100%" viewBox="0 0 512 512" enable-background="new 0 0 512 512" xml:space="preserve">
<path fill="#000000" opacity="1.000000" stroke="none" 
	d="
M462.000000,0.999999 
	C478.993378,1.000000 495.986786,1.000000 512.985107,1.000000 
	C512.990112,171.593567 512.990112,342.187134 512.990112,512.890381 
	C342.333374,512.890381 171.666702,512.890381 1.000000,512.890381 
	C1.000000,497.258392 1.000000,481.597870 1.468657,465.468658 
	C10.600103,465.000000 19.268164,464.820862 27.923458,465.075500 
	C32.259903,465.203094 35.633743,464.790283 35.458817,458.874817 
	C38.041813,459.576080 40.163734,460.626068 42.291306,460.637634 
	C47.841957,460.667816 53.457340,459.597107 58.935173,460.124969 
	C73.485352,461.527100 86.256798,452.395782 100.699425,453.547058 
	C102.810440,453.715363 105.001274,453.328217 107.107376,452.939270 
	C108.309166,452.717346 110.300575,452.123688 110.418007,451.437531 
	C111.139595,447.221283 114.254135,447.722748 116.926346,448.057617 
	C128.294220,449.482269 136.943756,439.597626 148.201660,440.650391 
	C148.632233,440.690643 149.470215,439.890472 149.572815,439.373627 
	C150.523010,434.587341 154.359863,436.192749 157.351562,435.566010 
	C161.418808,434.713928 165.391205,433.371063 169.356995,432.092102 
	C170.865479,431.605591 172.228180,430.139191 173.682663,430.101685 
	C181.160858,429.908783 185.740326,421.935181 193.597931,422.804260 
	C194.068161,422.856232 194.548477,421.107971 195.299896,420.655731 
	C197.337418,419.429596 199.535309,417.551971 201.647903,417.579773 
	C204.965088,417.623505 207.211060,417.277893 209.021072,414.107513 
	C209.874969,412.611816 212.240631,411.895935 214.019180,411.027100 
	C219.321701,408.436707 224.679733,405.960175 229.989899,403.385101 
	C230.371475,403.200043 230.460205,402.481171 230.824219,402.177063 
	C232.130463,401.085724 233.425781,399.954041 234.858521,399.048523 
	C236.516159,398.000854 238.390854,397.294098 240.037048,396.231384 
	C244.293350,393.483612 250.164413,393.172699 252.719818,387.760620 
	C252.995941,387.175781 254.602005,387.317841 255.479004,386.891815 
	C256.488922,386.401215 257.414429,385.705505 258.306580,385.009155 
	C261.902649,382.202209 265.214630,377.501587 269.110382,376.962830 
	C275.118988,376.131866 276.218475,370.142731 281.427185,368.442963 
	C285.995026,366.952362 288.935822,361.008972 293.446930,358.686859 
	C300.231171,355.194580 303.577332,347.600128 310.984375,345.121460 
	C311.635254,344.903595 311.766754,343.369110 312.324951,342.576813 
	C312.960663,341.674469 313.655334,340.640656 314.581726,340.143646 
	C321.813721,336.263672 327.543762,331.096191 330.279968,323.060120 
	C330.571350,322.204437 331.931854,321.705750 332.808594,321.058044 
	C334.049103,320.141724 335.300995,319.240814 336.548004,318.333313 
	C335.106445,317.214752 333.766541,315.313599 332.206055,315.110962 
	C324.828796,314.152924 317.398224,313.204834 309.973724,313.090332 
	C291.985992,312.812897 273.991058,313.000824 255.530457,313.001068 
	C232.707352,313.001831 210.352814,313.002747 187.529800,313.002808 
	C134.365829,313.000885 81.670303,313.022858 28.974842,312.979156 
	C18.562557,312.970520 20.179571,314.335114 19.995663,303.529175 
	C19.995239,284.373047 19.993174,265.685303 19.993938,246.529175 
	C19.992889,232.705933 19.989010,219.351089 19.992363,205.576904 
	C19.760082,201.881775 21.985861,201.984283 24.243851,201.988129 
	C35.494953,202.007278 46.746124,201.989166 58.466141,201.990173 
	C98.289185,201.993759 137.643356,201.991348 177.466400,201.993073 
	C195.956146,201.996307 213.977005,201.995407 232.466736,201.996841 
	C249.623337,201.998230 266.311066,201.997284 283.467529,201.997528 
	C303.623749,201.998367 323.311279,201.998032 343.467529,201.998505 
	C366.828064,201.333023 389.717377,200.528015 412.613739,200.111069 
	C417.511169,200.021881 420.066681,199.122696 418.549469,194.863403 
	C425.987823,182.862091 430.799896,170.890472 434.223907,157.388718 
	C436.338898,155.981781 445.091675,127.325447 444.895325,122.216049 
	C446.565338,119.755241 448.709381,117.114906 448.733856,114.455017 
	C448.810303,106.164581 450.748322,98.482483 454.258728,91.079933 
	C454.592377,90.376358 454.659882,89.519760 454.732483,88.723412 
	C455.354675,81.898796 455.817413,75.056725 456.588348,68.249367 
	C457.427490,60.839378 458.522400,53.457741 459.557312,46.070953 
	C459.817810,44.211407 460.631073,42.368103 460.573029,40.536888 
	C460.414795,35.543732 459.813812,30.565342 459.623169,25.572132 
	C459.542877,23.469007 459.516388,21.077675 460.405090,19.282534 
	C462.329041,15.396165 462.008087,12.029800 460.540680,10.109926 
	C461.162964,6.225267 461.581482,3.612633 462.000000,0.999999 
M355.233002,268.374634 
	C358.228394,267.244720 363.689728,267.059113 357.357635,262.451172 
	C356.707092,261.977753 356.827240,260.280151 356.801147,259.145752 
	C356.732330,256.154419 356.594757,253.145782 356.829956,250.171356 
	C357.096863,246.795303 355.666351,245.643234 352.487366,246.007812 
	C351.338745,246.139557 350.161957,246.026077 348.999298,245.148849 
	C348.668427,239.055481 349.719818,233.973892 356.911591,232.318436 
	C358.160187,232.031006 359.697784,229.618134 359.664093,228.221649 
	C359.637604,227.123947 357.550140,225.563919 356.101288,225.126556 
	C353.611389,224.374985 350.906616,224.055511 348.290314,224.046326 
	C326.193359,223.968719 304.096008,224.002625 281.061615,224.001648 
	C271.373535,224.003540 261.685455,224.005432 251.060608,224.003525 
	C236.370483,224.009003 221.680344,224.014481 206.054138,224.013245 
	C176.497009,224.009644 146.939163,224.107224 117.383446,223.900681 
	C112.581123,223.867126 110.619118,224.749100 110.867050,230.111038 
	C111.342087,240.384491 111.014259,250.695068 111.005440,261.929749 
	C111.004341,269.713562 111.171043,277.502594 110.929344,285.278931 
	C110.813446,289.007538 112.090477,290.117828 115.760994,290.069397 
	C129.504501,289.887848 143.251816,289.994232 157.935303,289.997314 
	C201.741623,289.996979 245.550476,290.238068 289.352020,289.781189 
	C297.558411,289.695618 306.581635,289.190918 312.401123,281.173920 
	C314.446716,278.355865 314.427124,277.028015 310.842712,275.850311 
	C308.974152,275.236328 307.517059,273.370087 306.700684,271.902618 
	C324.067627,271.902618 341.434601,271.902618 358.801544,271.902618 
	C358.822815,271.650360 358.844055,271.398132 358.865326,271.145874 
	C357.549316,270.466003 356.233276,269.786102 355.233002,268.374634 
M366.716888,267.763306 
	C368.544556,267.747559 370.540802,268.165771 372.134186,267.546844 
	C373.033356,267.197540 373.269348,265.140961 373.804108,263.853455 
	C368.256805,261.787750 370.985413,257.104340 371.054352,253.631119 
	C371.079559,252.362793 374.166779,250.802795 376.115936,250.156525 
	C376.647156,249.980377 378.754028,252.527420 379.020813,254.023834 
	C379.509064,256.762604 379.158783,259.649780 379.169586,262.475006 
	C379.189758,267.748810 380.112823,268.599701 385.263245,267.690643 
	C386.177582,267.529266 387.490540,266.669128 387.636810,265.935699 
	C387.786621,265.184662 386.727997,264.193726 386.200836,263.306274 
	C385.460297,262.059631 384.244568,260.870544 384.081787,259.551941 
	C383.738037,256.767029 383.994568,253.912689 383.914459,251.089401 
	C383.810150,247.412094 381.490845,245.523361 378.178772,245.446472 
	C373.502930,245.337921 368.806824,245.739014 364.135345,246.118713 
	C363.234558,246.191925 362.407257,247.169571 361.546082,247.730011 
	C362.199829,248.514053 362.736389,249.453171 363.529572,250.052811 
	C365.834473,251.795319 366.230286,261.111328 364.091400,263.070160 
	C363.141693,263.939941 362.449768,265.091217 361.640808,266.114685 
	C363.048615,266.664093 364.456451,267.213531 366.716888,267.763306 
M397.668518,245.709991 
	C397.203217,243.718033 396.737915,241.726074 395.991272,238.529602 
	C393.361511,242.017532 391.085785,244.641403 389.398865,247.600876 
	C389.055084,248.203964 391.119171,249.986908 391.710602,251.379944 
	C392.141571,252.395050 392.041748,253.661972 392.063812,254.818832 
	C392.114594,257.481964 392.082428,260.146576 392.107788,262.810333 
	C392.144379,266.653992 394.342743,268.247437 397.904144,267.894196 
	C398.927765,267.792664 400.053650,266.783722 400.692383,265.879761 
	C400.893097,265.595734 399.827179,264.053802 399.047485,263.503479 
	C395.841003,261.240356 395.751404,252.089569 399.020691,250.000336 
	C401.848694,248.193085 401.527679,246.880676 397.668518,245.709991 
z"/>
<path fill="#040404" opacity="1.000000" stroke="none" 
	d="
M255.999008,313.001221 
	C273.991058,313.000824 291.985992,312.812897 309.973724,313.090332 
	C317.398224,313.204834 324.828796,314.152924 332.206055,315.110962 
	C333.766541,315.313599 335.106445,317.214752 336.548004,318.333313 
	C335.300995,319.240814 334.049103,320.141724 332.808594,321.058044 
	C331.931854,321.705750 330.571350,322.204437 330.279968,323.060120 
	C327.543762,331.096191 321.813721,336.263672 314.581726,340.143646 
	C313.655334,340.640656 312.960663,341.674469 312.324951,342.576813 
	C311.766754,343.369110 311.635254,344.903595 310.984375,345.121460 
	C303.577332,347.600128 300.231171,355.194580 293.446930,358.686859 
	C288.935822,361.008972 285.995026,366.952362 281.427185,368.442963 
	C276.218475,370.142731 275.118988,376.131866 269.110382,376.962830 
	C265.214630,377.501587 261.902649,382.202209 258.306580,385.009155 
	C257.414429,385.705505 256.488922,386.401215 255.479004,386.891815 
	C254.602005,387.317841 252.995941,387.175781 252.719818,387.760620 
	C250.164413,393.172699 244.293350,393.483612 240.037048,396.231384 
	C238.390854,397.294098 236.516159,398.000854 234.858521,399.048523 
	C233.425781,399.954041 232.130463,401.085724 230.824219,402.177063 
	C230.460205,402.481171 230.371475,403.200043 229.989899,403.385101 
	C224.679733,405.960175 219.321701,408.436707 214.019180,411.027100 
	C212.240631,411.895935 209.874969,412.611816 209.021072,414.107513 
	C207.211060,417.277893 204.965088,417.623505 201.647903,417.579773 
	C199.535309,417.551971 197.337418,419.429596 195.299896,420.655731 
	C194.548477,421.107971 194.068161,422.856232 193.597931,422.804260 
	C185.740326,421.935181 181.160858,429.908783 173.682663,430.101685 
	C172.228180,430.139191 170.865479,431.605591 169.356995,432.092102 
	C165.391205,433.371063 161.418808,434.713928 157.351562,435.566010 
	C154.359863,436.192749 150.523010,434.587341 149.572815,439.373627 
	C149.470215,439.890472 148.632233,440.690643 148.201660,440.650391 
	C136.943756,439.597626 128.294220,449.482269 116.926346,448.057617 
	C114.254135,447.722748 111.139595,447.221283 110.418007,451.437531 
	C110.300575,452.123688 108.309166,452.717346 107.107376,452.939270 
	C105.001274,453.328217 102.810440,453.715363 100.699425,453.547058 
	C86.256798,452.395782 73.485352,461.527100 58.935173,460.124969 
	C53.457340,459.597107 47.841957,460.667816 42.291306,460.637634 
	C40.163734,460.626068 38.041813,459.576080 35.458817,458.874817 
	C35.633743,464.790283 32.259903,465.203094 27.923458,465.075500 
	C19.268164,464.820862 10.600103,465.000000 1.468657,465.000000 
	C1.000000,448.645782 1.000000,432.291534 1.458563,415.468658 
	C10.274240,415.002716 18.643444,414.734161 26.984106,415.105957 
	C32.316792,415.343628 37.589745,416.428406 42.181034,411.610352 
	C42.560654,413.181274 42.780403,414.090637 42.726425,415.039368 
	C42.140312,415.372986 41.827927,415.667267 41.515541,415.961548 
	C41.715679,416.133392 41.915813,416.305237 42.115948,416.477081 
	C42.410580,415.984711 42.705212,415.492371 43.384155,414.998383 
	C44.703911,414.752808 46.372322,414.663818 46.461720,414.240997 
	C47.383602,409.880463 51.006058,410.208282 53.875099,410.314209 
	C57.661850,410.454010 61.400959,411.877686 65.182915,410.105255 
	C65.612808,409.903809 66.393631,410.613403 67.026726,410.651550 
	C68.651367,410.749359 70.332375,410.965363 71.905396,410.673523 
	C77.157616,409.699097 82.450554,407.457794 87.571365,407.833801 
	C90.516411,408.050049 92.503960,407.859863 94.628670,406.334778 
	C98.134346,403.818481 101.555473,401.184082 105.070854,398.681824 
	C105.519989,398.362091 106.319511,398.519806 106.958267,398.483612 
	C113.465088,398.115021 120.496727,400.783051 126.107780,395.167175 
	C126.292656,394.982147 126.762871,395.113739 127.078957,395.023621 
	C132.143631,393.579620 137.206223,392.128326 142.263550,390.658875 
	C142.568054,390.570343 142.923019,390.380432 143.088287,390.128601 
	C146.085968,385.561310 150.641403,386.392914 154.848495,386.173676 
	C156.700714,384.814911 158.810745,382.998230 160.735916,383.176575 
	C165.915939,383.656403 168.402863,380.547668 171.180893,377.178925 
	C172.207520,375.933990 174.124344,375.301697 175.749542,374.697784 
	C178.864792,373.540161 182.128555,372.768372 185.206787,371.528809 
	C188.490768,370.206329 191.592514,368.438446 194.843811,367.026123 
	C199.887314,364.835327 204.996811,362.796814 210.053818,360.636383 
	C210.423523,360.478455 210.831253,359.851929 210.822723,359.451752 
	C210.729156,355.065460 213.599808,354.858093 216.872986,354.900421 
	C217.728760,354.911499 218.610428,354.155090 219.453156,353.700958 
	C221.754990,352.460510 224.001953,351.110474 226.348923,349.964081 
	C228.077896,349.119568 231.233383,348.857910 231.509872,347.767639 
	C232.987473,341.941040 238.815582,340.931946 242.278656,337.402740 
	C243.855194,335.796112 246.840881,335.572205 249.764435,334.511810 
	C251.634659,331.410950 251.609879,326.213867 258.335663,325.464111 
	C261.311249,325.132416 263.789581,320.339966 266.122650,317.952179 
	C262.016418,315.944031 259.007721,314.472626 255.999008,313.001221 
z"/>
<path fill="#111111" opacity="1.000000" stroke="none" 
	d="
M57.997269,201.984192 
	C46.746124,201.989166 35.494953,202.007278 24.243851,201.988129 
	C21.985861,201.984283 19.760082,201.881775 19.578186,205.576447 
	C13.104520,205.996902 7.052260,205.998459 1.000000,206.000000 
	C1.000000,187.645767 1.000000,169.291550 1.289620,150.424377 
	C1.888030,149.592361 2.196820,149.273285 2.505610,148.954224 
	C2.003740,148.636154 1.501870,148.318069 1.000000,148.000000 
	C1.000000,147.555557 1.000000,147.111099 1.419542,146.335220 
	C4.291512,146.316467 6.766733,147.014175 9.192147,146.870575 
	C16.869333,146.416077 24.727425,146.505463 32.143036,144.781815 
	C41.364708,142.638382 51.619324,142.491608 58.760727,134.608688 
	C59.132938,134.197830 59.972500,134.051208 60.595043,134.049911 
	C72.086922,134.025940 79.176308,125.129829 88.092812,120.067429 
	C92.881180,117.348793 96.367058,112.396866 100.615479,108.650948 
	C105.886856,104.003067 111.280487,99.545708 115.132927,93.501862 
	C117.443138,89.877533 120.319374,86.619171 122.787010,83.088554 
	C125.257027,79.554535 127.775787,76.018028 129.839676,72.245461 
	C132.757980,66.911102 135.292496,61.365932 137.953430,55.892582 
	C138.360901,55.054459 138.585632,54.124100 138.862183,53.226326 
	C139.866852,49.964806 140.769867,46.668716 141.882217,43.444668 
	C142.727997,40.993313 144.337753,38.708912 144.720688,36.214096 
	C145.587021,30.569773 145.902451,24.841036 146.448959,19.147306 
	C146.526840,18.335821 146.770081,17.520502 146.721832,16.719913 
	C146.467743,12.504869 145.001923,8.125022 149.324265,4.779792 
	C150.074966,4.198798 149.800797,2.293581 150.000000,1.000000 
	C168.687561,1.000000 187.375122,1.000000 206.531342,1.425054 
	C206.847961,7.527336 206.954788,13.226297 206.480377,18.876457 
	C205.843842,26.457684 204.844833,34.012920 203.825851,41.555595 
	C203.362244,44.987476 203.489716,49.149685 201.580185,51.604874 
	C197.148819,57.302521 198.905334,64.571419 195.276443,70.580338 
	C191.493362,76.844566 190.033524,84.466522 187.014572,91.253159 
	C184.927338,95.945282 181.995880,100.275185 179.289459,104.673286 
	C177.794388,107.102837 175.414505,109.120750 174.425751,111.704010 
	C171.502075,119.342499 166.912781,125.788742 161.200317,131.448441 
	C158.733871,133.892105 155.202103,135.362488 155.108444,139.568130 
	C155.099670,139.962051 154.574829,140.387344 154.219589,140.724228 
	C149.450882,145.246704 144.745575,149.840637 139.854141,154.226807 
	C137.914719,155.965897 134.829620,156.769791 133.519974,158.805939 
	C129.203354,165.517014 122.895317,168.794388 116.089386,170.561295 
	C115.435417,172.169937 115.284378,174.047546 114.370178,174.557770 
	C105.014481,179.779343 95.705414,185.142319 86.018326,189.687973 
	C81.136230,191.978882 75.499634,192.652832 70.221031,194.118515 
	C69.504906,194.317368 68.870766,194.844940 68.226662,195.263397 
	C66.330208,196.495499 64.448982,197.751038 62.559551,198.993988 
	C61.040489,199.993317 59.518154,200.987656 57.997269,201.984192 
z"/>
<path fill="#0E0E0E" opacity="1.000000" stroke="none" 
	d="
M58.466141,201.990173 
	C59.518154,200.987656 61.040489,199.993317 62.559551,198.993988 
	C64.448982,197.751038 66.330208,196.495499 68.226662,195.263397 
	C68.870766,194.844940 69.504906,194.317368 70.221031,194.118515 
	C75.499634,192.652832 81.136230,191.978882 86.018326,189.687973 
	C95.705414,185.142319 105.014481,179.779343 114.370178,174.557770 
	C115.284378,174.047546 115.435417,172.169937 116.089386,170.561295 
	C122.895317,168.794388 129.203354,165.517014 133.519974,158.805939 
	C134.829620,156.769791 137.914719,155.965897 139.854141,154.226807 
	C144.745575,149.840637 149.450882,145.246704 154.219589,140.724228 
	C154.574829,140.387344 155.099670,139.962051 155.108444,139.568130 
	C155.202103,135.362488 158.733871,133.892105 161.200317,131.448441 
	C166.912781,125.788742 171.502075,119.342499 174.425751,111.704010 
	C175.414505,109.120750 177.794388,107.102837 179.289459,104.673286 
	C181.995880,100.275185 184.927338,95.945282 187.014572,91.253159 
	C190.033524,84.466522 191.493362,76.844566 195.276443,70.580338 
	C198.905334,64.571419 197.148819,57.302521 201.580185,51.604874 
	C203.489716,49.149685 203.362244,44.987476 203.825851,41.555595 
	C204.844833,34.012920 205.843842,26.457684 206.480377,18.876457 
	C206.954788,13.226297 206.847961,7.527336 207.000000,1.425054 
	C225.020889,1.000000 243.041794,1.000000 261.607178,1.348852 
	C263.418823,2.564311 264.686005,3.430917 266.170074,4.445864 
	C265.535034,5.293474 265.178223,6.310143 264.573639,6.488884 
	C260.681274,7.639625 261.627533,9.424767 262.382599,12.754754 
	C263.344147,16.995609 261.960754,21.768167 261.653412,25.516401 
	C261.653412,31.375919 261.653412,36.556316 261.653412,42.420872 
	C261.360931,42.594948 260.266754,43.246155 259.172546,43.897366 
	C259.552582,44.098717 259.932617,44.300068 260.312653,44.501419 
	C259.763763,46.126495 259.190948,47.744076 258.678772,49.380634 
	C258.494476,49.969563 258.419159,50.600433 258.356873,51.218494 
	C257.753479,57.203243 260.012573,63.154652 254.953140,69.068367 
	C251.883957,72.655754 252.531097,79.422638 251.366882,85.501617 
	C248.741425,87.059654 245.443665,89.121590 247.400528,94.362663 
	C248.393524,97.022209 244.490326,102.769226 241.075989,104.099930 
	C246.479889,109.985893 240.737122,109.794731 236.823044,110.775871 
	C241.192337,117.321571 235.999344,119.545685 231.866745,122.243233 
	C232.990555,123.756317 233.913925,124.999512 234.414337,125.673256 
	C231.875366,128.974869 228.460602,131.565216 227.707794,134.779099 
	C226.137161,141.484375 224.822906,143.960663 218.176544,145.812576 
	C223.024826,152.244675 217.225662,151.761719 214.654327,152.273010 
	C214.079895,154.669998 213.870331,156.342438 213.274323,157.863464 
	C212.075378,160.923264 210.089798,163.146423 207.480759,165.439133 
	C203.963745,168.529770 202.683365,174.039734 197.324615,175.529587 
	C197.049728,175.605988 196.645309,175.988098 196.656631,176.209763 
	C196.959335,182.145340 192.508865,180.510956 189.243561,181.178497 
	C188.166855,181.398605 186.581390,183.489182 186.719467,184.525940 
	C187.270798,188.665344 186.084427,191.391861 181.931610,192.509369 
	C180.093857,193.003906 178.230072,193.401749 176.378113,193.843475 
	C176.880463,194.164520 177.382812,194.485565 177.885162,194.806610 
	C177.589279,197.200714 177.293396,199.594833 176.997528,201.988937 
	C137.643356,201.991348 98.289185,201.993759 58.466141,201.990173 
z"/>
<path fill="#040404" opacity="1.000000" stroke="none" 
	d="
M461.531342,0.999999 
	C461.581482,3.612633 461.162964,6.225267 460.540680,10.109926 
	C462.008087,12.029800 462.329041,15.396165 460.405090,19.282534 
	C459.516388,21.077675 459.542877,23.469007 459.623169,25.572132 
	C459.813812,30.565342 460.414795,35.543732 460.573029,40.536888 
	C460.631073,42.368103 459.817810,44.211407 459.557312,46.070953 
	C458.522400,53.457741 457.427490,60.839378 456.588348,68.249367 
	C455.817413,75.056725 455.354675,81.898796 454.732483,88.723412 
	C454.659882,89.519760 454.592377,90.376358 454.258728,91.079933 
	C450.748322,98.482483 448.810303,106.164581 448.733856,114.455017 
	C448.709381,117.114906 446.565338,119.755241 444.895325,122.216049 
	C445.091675,127.325447 436.338898,155.981781 434.223907,157.388718 
	C430.799896,170.890472 425.987823,182.862091 418.549469,194.863403 
	C420.066681,199.122696 417.511169,200.021881 412.613739,200.111069 
	C389.717377,200.528015 366.828064,201.333023 343.537476,201.643509 
	C346.477966,199.045776 349.484528,196.710144 352.131683,193.386932 
	C354.095886,190.921143 355.551788,189.046310 354.797028,186.235596 
	C353.810333,182.561447 355.410858,181.087021 358.638977,181.070572 
	C361.797180,181.054459 362.245422,179.298401 361.970093,176.880646 
	C361.805542,175.435577 361.656311,173.870071 360.999146,172.622696 
	C359.228210,169.261322 360.830872,168.455704 363.806915,168.467529 
	C364.719452,168.471161 365.631653,168.556824 365.590332,168.554642 
	C366.957001,165.601807 368.013367,163.319397 369.069733,161.036987 
	C369.053253,159.103729 369.705078,157.666870 370.415619,156.259689 
	C370.690155,155.715958 371.456482,155.185135 371.389069,154.740967 
	C370.782196,150.742096 375.286224,148.992569 375.400085,145.004028 
	C375.468079,142.622925 378.388092,140.456757 379.246155,137.929184 
	C380.208984,135.093079 380.292328,131.958405 380.862030,128.284912 
	C381.343872,127.786423 383.857910,125.968147 383.586823,125.326447 
	C382.571136,122.922203 383.162323,121.561707 384.335602,119.325859 
	C385.749481,116.631500 385.533234,113.081764 386.022644,109.902306 
	C387.251434,108.557022 387.924011,107.008850 388.323853,105.393181 
	C389.113922,102.200668 389.664703,98.948257 390.477814,95.762314 
	C391.416290,92.085114 392.887512,88.507973 393.462555,84.784706 
	C393.971771,81.487503 393.569305,78.049492 393.569305,75.287849 
	C393.734497,72.311348 393.864441,69.970345 393.994202,67.632774 
	C403.417297,65.369553 395.746643,57.320381 399.022949,53.059040 
	C397.093964,51.879158 395.723267,51.040756 393.434052,49.640545 
	C396.361176,49.084156 397.914215,48.788960 398.991699,48.584148 
	C398.991699,42.964554 398.991699,37.747524 398.991699,32.072884 
	C401.771759,29.491924 402.509918,26.073830 400.902954,21.354940 
	C399.230316,16.443369 400.167450,11.392179 402.593689,7.440168 
	C404.058533,5.054182 404.905182,3.485940 404.000000,1.000000 
	C423.020905,1.000000 442.041779,1.000000 461.531342,0.999999 
z"/>
<path fill="#060606" opacity="1.000000" stroke="none" 
	d="
M255.530457,313.001068 
	C259.007721,314.472626 262.016418,315.944031 266.122650,317.952179 
	C263.789581,320.339966 261.311249,325.132416 258.335663,325.464111 
	C251.609879,326.213867 251.634659,331.410950 249.764435,334.511810 
	C246.840881,335.572205 243.855194,335.796112 242.278656,337.402740 
	C238.815582,340.931946 232.987473,341.941040 231.509872,347.767639 
	C231.233383,348.857910 228.077896,349.119568 226.348923,349.964081 
	C224.001953,351.110474 221.754990,352.460510 219.453156,353.700958 
	C218.610428,354.155090 217.728760,354.911499 216.872986,354.900421 
	C213.599808,354.858093 210.729156,355.065460 210.822723,359.451752 
	C210.831253,359.851929 210.423523,360.478455 210.053818,360.636383 
	C204.996811,362.796814 199.887314,364.835327 194.843811,367.026123 
	C191.592514,368.438446 188.490768,370.206329 185.206787,371.528809 
	C182.128555,372.768372 178.864792,373.540161 175.749542,374.697784 
	C174.124344,375.301697 172.207520,375.933990 171.180893,377.178925 
	C168.402863,380.547668 165.915939,383.656403 160.735916,383.176575 
	C158.810745,382.998230 156.700714,384.814911 154.848495,386.173676 
	C150.641403,386.392914 146.085968,385.561310 143.088287,390.128601 
	C142.923019,390.380432 142.568054,390.570343 142.263550,390.658875 
	C137.206223,392.128326 132.143631,393.579620 127.078957,395.023621 
	C126.762871,395.113739 126.292656,394.982147 126.107780,395.167175 
	C120.496727,400.783051 113.465088,398.115021 106.958267,398.483612 
	C106.319511,398.519806 105.519989,398.362091 105.070854,398.681824 
	C101.555473,401.184082 98.134346,403.818481 94.628670,406.334778 
	C92.503960,407.859863 90.516411,408.050049 87.571365,407.833801 
	C82.450554,407.457794 77.157616,409.699097 71.905396,410.673523 
	C70.332375,410.965363 68.651367,410.749359 67.026726,410.651550 
	C66.393631,410.613403 65.612808,409.903809 65.182915,410.105255 
	C61.400959,411.877686 57.661850,410.454010 53.875099,410.314209 
	C51.006058,410.208282 47.383602,409.880463 46.461720,414.240997 
	C46.372322,414.663818 44.703911,414.752808 43.384232,414.998383 
	C43.000000,415.000000 43.000153,415.000000 43.000153,415.000000 
	C42.780403,414.090637 42.560654,413.181274 42.181034,411.610352 
	C37.589745,416.428406 32.316792,415.343628 26.984106,415.105957 
	C18.643444,414.734161 10.274240,415.002716 1.458563,415.000000 
	C1.000000,398.312439 1.000000,381.624878 1.444898,364.468658 
	C7.574729,364.317566 13.260796,364.907288 18.944307,364.883606 
	C26.005396,364.854187 33.070698,364.413208 40.120758,363.947021 
	C42.518101,363.788483 44.860767,362.928436 47.252930,362.539825 
	C52.139679,361.745972 57.375393,362.486603 61.667866,359.086090 
	C62.019371,358.807587 62.949722,359.386383 63.585266,359.319885 
	C68.939362,358.759735 74.356628,358.490631 79.618416,357.446320 
	C85.191284,356.340210 90.646370,354.584198 96.092514,352.915009 
	C99.996887,351.718323 103.798065,350.186646 107.652580,348.825104 
	C110.369316,347.865479 113.075134,346.865112 115.827934,346.020111 
	C118.905373,345.075439 122.045868,344.337372 125.130104,343.413208 
	C127.952324,342.567566 130.763809,341.669159 133.529266,340.655487 
	C136.463242,339.580109 139.432373,338.530731 142.216995,337.132965 
	C147.255157,334.603973 151.927399,330.283905 157.181717,329.464508 
	C168.780716,327.655792 175.783997,317.134430 187.012527,315.138092 
	C187.453659,315.059631 187.674683,313.743225 187.998276,313.003662 
	C210.352814,313.002747 232.707352,313.001831 255.530457,313.001068 
z"/>
<path fill="#141414" opacity="1.000000" stroke="none" 
	d="
M149.531342,1.000000 
	C149.800797,2.293581 150.074966,4.198798 149.324265,4.779792 
	C145.001923,8.125022 146.467743,12.504869 146.721832,16.719913 
	C146.770081,17.520502 146.526840,18.335821 146.448959,19.147306 
	C145.902451,24.841036 145.587021,30.569773 144.720688,36.214096 
	C144.337753,38.708912 142.727997,40.993313 141.882217,43.444668 
	C140.769867,46.668716 139.866852,49.964806 138.862183,53.226326 
	C138.585632,54.124100 138.360901,55.054459 137.953430,55.892582 
	C135.292496,61.365932 132.757980,66.911102 129.839676,72.245461 
	C127.775787,76.018028 125.257027,79.554535 122.787010,83.088554 
	C120.319374,86.619171 117.443138,89.877533 115.132927,93.501862 
	C111.280487,99.545708 105.886856,104.003067 100.615479,108.650948 
	C96.367058,112.396866 92.881180,117.348793 88.092812,120.067429 
	C79.176308,125.129829 72.086922,134.025940 60.595043,134.049911 
	C59.972500,134.051208 59.132938,134.197830 58.760727,134.608688 
	C51.619324,142.491608 41.364708,142.638382 32.143036,144.781815 
	C24.727425,146.505463 16.869333,146.416077 9.192147,146.870575 
	C6.766733,147.014175 4.291512,146.316467 1.419542,146.001892 
	C1.000000,123.645775 1.000000,101.291542 1.382103,78.476753 
	C5.558929,78.610893 9.446502,79.990280 13.119431,79.555687 
	C16.138069,79.198486 18.781525,79.152122 21.806036,79.466980 
	C24.329845,79.729713 28.582663,77.556099 29.559460,75.350006 
	C31.231924,71.572731 33.429432,70.828796 36.855053,70.963844 
	C37.644688,70.994972 38.986172,70.885086 39.165382,70.458504 
	C41.735554,64.340446 48.143875,66.648102 51.684219,64.700386 
	C52.661209,62.195198 52.932636,59.842293 54.236874,58.473480 
	C57.787380,54.747185 62.403072,52.551105 65.605125,47.834026 
	C68.352600,43.786613 71.817284,40.493496 73.032967,35.379459 
	C74.155548,30.657026 75.830681,26.000460 77.819786,21.564808 
	C80.820518,14.873202 82.048996,8.151298 80.000000,1.000000 
	C103.020897,1.000000 126.041786,1.000000 149.531342,1.000000 
z"/>
<path fill="#070707" opacity="1.000000" stroke="none" 
	d="
M403.531342,1.000000 
	C404.905182,3.485940 404.058533,5.054182 402.593689,7.440168 
	C400.167450,11.392179 399.230316,16.443369 400.902954,21.354940 
	C402.509918,26.073830 401.771759,29.491924 398.991699,32.072884 
	C398.991699,37.747524 398.991699,42.964554 398.991699,48.584148 
	C397.914215,48.788960 396.361176,49.084156 393.434052,49.640545 
	C395.723267,51.040756 397.093964,51.879158 399.022949,53.059040 
	C395.746643,57.320381 403.417297,65.369553 393.994202,67.632774 
	C393.864441,69.970345 393.734497,72.311348 393.569305,75.287849 
	C393.569305,78.049492 393.971771,81.487503 393.462555,84.784706 
	C392.887512,88.507973 391.416290,92.085114 390.477814,95.762314 
	C389.664703,98.948257 389.113922,102.200668 388.323853,105.393181 
	C387.924011,107.008850 387.251434,108.557022 386.022644,109.902306 
	C385.533234,113.081764 385.749481,116.631500 384.335602,119.325859 
	C383.162323,121.561707 382.571136,122.922203 383.586823,125.326447 
	C383.857910,125.968147 381.343872,127.786423 380.862030,128.284912 
	C380.292328,131.958405 380.208984,135.093079 379.246155,137.929184 
	C378.388092,140.456757 375.468079,142.622925 375.400085,145.004028 
	C375.286224,148.992569 370.782196,150.742096 371.389069,154.740967 
	C371.456482,155.185135 370.690155,155.715958 370.415619,156.259689 
	C369.705078,157.666870 369.053253,159.103729 369.069733,161.036987 
	C368.013367,163.319397 366.957001,165.601807 365.590332,168.554642 
	C365.631653,168.556824 364.719452,168.471161 363.806915,168.467529 
	C360.830872,168.455704 359.228210,169.261322 360.999146,172.622696 
	C361.656311,173.870071 361.805542,175.435577 361.970093,176.880646 
	C362.245422,179.298401 361.797180,181.054459 358.638977,181.070572 
	C355.410858,181.087021 353.810333,182.561447 354.797028,186.235596 
	C355.551788,189.046310 354.095886,190.921143 352.131683,193.386932 
	C349.484528,196.710144 346.477966,199.045776 343.068756,201.642670 
	C323.311279,201.998032 303.623749,201.998367 283.474792,201.629196 
	C283.990784,199.376801 284.805542,197.384613 285.981354,195.635117 
	C288.068176,192.530090 290.673096,189.743759 292.524078,186.516068 
	C296.040710,180.383911 299.123596,174.004669 302.502441,167.791016 
	C303.725128,165.542542 305.503357,163.585724 306.638733,161.302216 
	C309.509216,155.529037 312.494720,149.776810 314.829163,143.780640 
	C320.268738,129.808594 325.414764,115.720589 330.522339,101.622543 
	C331.435852,99.101013 331.384613,96.241547 332.176910,93.660294 
	C332.673157,92.043510 334.326538,90.761635 334.743530,89.144547 
	C336.063232,84.027016 337.019836,78.816765 338.169403,73.654076 
	C338.707489,71.237358 339.701843,68.875839 339.907715,66.440140 
	C340.550629,58.833363 339.641144,51.135513 342.705078,43.706032 
	C344.055023,40.432625 343.954407,36.484871 344.143097,32.824253 
	C344.556366,24.806772 344.755402,16.777779 344.995056,8.752089 
	C345.072174,6.170312 345.002533,3.584154 345.000000,1.000000 
	C364.354218,1.000000 383.708466,1.000000 403.531342,1.000000 
M395.784180,62.502899 
	C395.076508,62.189457 394.368835,61.876015 393.661163,61.562576 
	C393.544586,62.004536 393.428040,62.446495 393.311462,62.888451 
	C394.082825,62.976986 394.854218,63.065525 395.784180,62.502899 
z"/>
<path fill="#0B0B0B" opacity="1.000000" stroke="none" 
	d="
M177.466400,201.993073 
	C177.293396,199.594833 177.589279,197.200714 177.885162,194.806610 
	C177.382812,194.485565 176.880463,194.164520 176.378113,193.843475 
	C178.230072,193.401749 180.093857,193.003906 181.931610,192.509369 
	C186.084427,191.391861 187.270798,188.665344 186.719467,184.525940 
	C186.581390,183.489182 188.166855,181.398605 189.243561,181.178497 
	C192.508865,180.510956 196.959335,182.145340 196.656631,176.209763 
	C196.645309,175.988098 197.049728,175.605988 197.324615,175.529587 
	C202.683365,174.039734 203.963745,168.529770 207.480759,165.439133 
	C210.089798,163.146423 212.075378,160.923264 213.274323,157.863464 
	C213.870331,156.342438 214.079895,154.669998 214.654327,152.273010 
	C217.225662,151.761719 223.024826,152.244675 218.176544,145.812576 
	C224.822906,143.960663 226.137161,141.484375 227.707794,134.779099 
	C228.460602,131.565216 231.875366,128.974869 234.414337,125.673256 
	C233.913925,124.999512 232.990555,123.756317 231.866745,122.243233 
	C235.999344,119.545685 241.192337,117.321571 236.823044,110.775871 
	C240.737122,109.794731 246.479889,109.985893 241.075989,104.099930 
	C244.490326,102.769226 248.393524,97.022209 247.400528,94.362663 
	C245.443665,89.121590 248.741425,87.059654 251.366882,85.501617 
	C252.531097,79.422638 251.883957,72.655754 254.953140,69.068367 
	C260.012573,63.154652 257.753479,57.203243 258.356873,51.218494 
	C258.419159,50.600433 258.494476,49.969563 258.678772,49.380634 
	C259.190948,47.744076 259.763763,46.126495 260.312653,44.501419 
	C259.932617,44.300068 259.552582,44.098717 259.172546,43.897366 
	C260.266754,43.246155 261.360931,42.594948 261.653412,42.420872 
	C261.653412,36.556316 261.653412,31.375919 261.653412,25.516401 
	C261.960754,21.768167 263.344147,16.995609 262.382599,12.754754 
	C261.627533,9.424767 260.681274,7.639625 264.573639,6.488884 
	C265.178223,6.310143 265.535034,5.293474 266.170074,4.445864 
	C264.686005,3.430917 263.418823,2.564311 262.075806,1.348852 
	C276.687561,1.000000 291.375122,1.000000 306.531342,1.438191 
	C305.347107,8.712278 306.317383,15.736335 304.937958,22.736504 
	C302.657776,34.307671 302.450073,46.273422 300.907593,58.012257 
	C300.450195,61.493137 297.912018,64.672188 297.267059,68.163170 
	C296.173309,74.083191 295.563965,79.777565 292.908478,85.610878 
	C290.519989,90.857666 289.333588,97.359505 288.362976,103.263847 
	C287.305664,109.695221 282.209747,114.090431 281.989594,120.924553 
	C281.850800,125.233162 277.396637,129.227829 276.033142,133.714340 
	C274.151733,139.904984 268.637848,143.600739 266.768494,150.100586 
	C264.915588,156.543167 259.764862,162.045746 256.013977,167.930923 
	C253.695145,171.569214 251.405319,175.235260 248.893478,178.739029 
	C245.671768,183.233017 242.982697,188.619095 238.682968,191.681656 
	C234.656830,194.549362 234.281433,198.646393 231.997864,201.994507 
	C213.977005,201.995407 195.956146,201.996307 177.466400,201.993073 
z"/>
<path fill="#080808" opacity="1.000000" stroke="none" 
	d="
M232.466736,201.996841 
	C234.281433,198.646393 234.656830,194.549362 238.682968,191.681656 
	C242.982697,188.619095 245.671768,183.233017 248.893478,178.739029 
	C251.405319,175.235260 253.695145,171.569214 256.013977,167.930923 
	C259.764862,162.045746 264.915588,156.543167 266.768494,150.100586 
	C268.637848,143.600739 274.151733,139.904984 276.033142,133.714340 
	C277.396637,129.227829 281.850800,125.233162 281.989594,120.924553 
	C282.209747,114.090431 287.305664,109.695221 288.362976,103.263847 
	C289.333588,97.359505 290.519989,90.857666 292.908478,85.610878 
	C295.563965,79.777565 296.173309,74.083191 297.267059,68.163170 
	C297.912018,64.672188 300.450195,61.493137 300.907593,58.012257 
	C302.450073,46.273422 302.657776,34.307671 304.937958,22.736504 
	C306.317383,15.736335 305.347107,8.712278 307.000000,1.438191 
	C319.354218,1.000000 331.708466,1.000000 344.531342,1.000000 
	C345.002533,3.584154 345.072174,6.170312 344.995056,8.752089 
	C344.755402,16.777779 344.556366,24.806772 344.143097,32.824253 
	C343.954407,36.484871 344.055023,40.432625 342.705078,43.706032 
	C339.641144,51.135513 340.550629,58.833363 339.907715,66.440140 
	C339.701843,68.875839 338.707489,71.237358 338.169403,73.654076 
	C337.019836,78.816765 336.063232,84.027016 334.743530,89.144547 
	C334.326538,90.761635 332.673157,92.043510 332.176910,93.660294 
	C331.384613,96.241547 331.435852,99.101013 330.522339,101.622543 
	C325.414764,115.720589 320.268738,129.808594 314.829163,143.780640 
	C312.494720,149.776810 309.509216,155.529037 306.638733,161.302216 
	C305.503357,163.585724 303.725128,165.542542 302.502441,167.791016 
	C299.123596,174.004669 296.040710,180.383911 292.524078,186.516068 
	C290.673096,189.743759 288.068176,192.530090 285.981354,195.635117 
	C284.805542,197.384613 283.990784,199.376801 283.006073,201.628006 
	C266.311066,201.997284 249.623337,201.998230 232.466736,201.996841 
z"/>
<path fill="#080808" opacity="1.000000" stroke="none" 
	d="
M187.529800,313.002808 
	C187.674683,313.743225 187.453659,315.059631 187.012527,315.138092 
	C175.783997,317.134430 168.780716,327.655792 157.181717,329.464508 
	C151.927399,330.283905 147.255157,334.603973 142.216995,337.132965 
	C139.432373,338.530731 136.463242,339.580109 133.529266,340.655487 
	C130.763809,341.669159 127.952324,342.567566 125.130104,343.413208 
	C122.045868,344.337372 118.905373,345.075439 115.827934,346.020111 
	C113.075134,346.865112 110.369316,347.865479 107.652580,348.825104 
	C103.798065,350.186646 99.996887,351.718323 96.092514,352.915009 
	C90.646370,354.584198 85.191284,356.340210 79.618416,357.446320 
	C74.356628,358.490631 68.939362,358.759735 63.585266,359.319885 
	C62.949722,359.386383 62.019371,358.807587 61.667866,359.086090 
	C57.375393,362.486603 52.139679,361.745972 47.252930,362.539825 
	C44.860767,362.928436 42.518101,363.788483 40.120758,363.947021 
	C33.070698,364.413208 26.005396,364.854187 18.944307,364.883606 
	C13.260796,364.907288 7.574729,364.317566 1.444898,364.000000 
	C1.000000,344.645782 1.000000,325.291534 1.406258,305.468628 
	C4.286638,304.424561 6.746815,303.455994 9.238205,303.367645 
	C12.811535,303.240906 16.407640,303.756317 19.994022,303.997559 
	C20.179571,314.335114 18.562557,312.970520 28.974842,312.979156 
	C81.670303,313.022858 134.365829,313.000885 187.529800,313.002808 
z"/>
<path fill="#181818" opacity="1.000000" stroke="none" 
	d="
M79.531342,1.000000 
	C82.048996,8.151298 80.820518,14.873202 77.819786,21.564808 
	C75.830681,26.000460 74.155548,30.657026 73.032967,35.379459 
	C71.817284,40.493496 68.352600,43.786613 65.605125,47.834026 
	C62.403072,52.551105 57.787380,54.747185 54.236874,58.473480 
	C52.932636,59.842293 52.661209,62.195198 51.684219,64.700386 
	C48.143875,66.648102 41.735554,64.340446 39.165382,70.458504 
	C38.986172,70.885086 37.644688,70.994972 36.855053,70.963844 
	C33.429432,70.828796 31.231924,71.572731 29.559460,75.350006 
	C28.582663,77.556099 24.329845,79.729713 21.806036,79.466980 
	C18.781525,79.152122 16.138069,79.198486 13.119431,79.555687 
	C9.446502,79.990280 5.558929,78.610893 1.382103,78.008095 
	C1.000000,52.405510 1.000000,26.811024 1.000000,1.000000 
	C27.020494,1.000000 53.041588,1.000000 79.531342,1.000000 
z"/>
<path fill="#0B0B0B" opacity="1.000000" stroke="none" 
	d="
M19.995663,303.529175 
	C16.407640,303.756317 12.811535,303.240906 9.238205,303.367645 
	C6.746815,303.455994 4.286638,304.424561 1.406258,304.999939 
	C1.000000,286.312439 1.000000,267.624878 1.467104,248.468658 
	C7.953174,247.665848 13.972141,247.331711 19.991108,246.997574 
	C19.993174,265.685303 19.995239,284.373047 19.995663,303.529175 
z"/>
<path fill="#0E0E0E" opacity="1.000000" stroke="none" 
	d="
M19.993938,246.529175 
	C13.972141,247.331711 7.953174,247.665848 1.467104,248.000000 
	C1.000000,234.312439 1.000000,220.624878 1.000000,206.468658 
	C7.052260,205.998459 13.104520,205.996902 19.570957,205.995804 
	C19.989010,219.351089 19.992889,232.705933 19.993938,246.529175 
z"/>
<path fill="#141414" opacity="1.000000" stroke="none" 
	d="
M1.000000,148.333328 
	C1.501870,148.318069 2.003740,148.636154 2.505610,148.954224 
	C2.196820,149.273285 1.888030,149.592361 1.289620,149.955719 
	C1.000000,149.555557 1.000000,149.111099 1.000000,148.333328 
z"/>
<path fill="#080808" opacity="1.000000" stroke="none" 
	d="
M251.997360,224.007324 
	C261.685455,224.005432 271.373535,224.003540 281.488251,224.350494 
	C277.776215,230.483856 273.637543,236.268372 268.714050,243.149796 
	C272.278412,243.471680 275.237457,243.561554 278.123718,244.067200 
	C279.809174,244.362473 281.378265,245.322296 282.571716,246.034637 
	C277.433167,245.884964 272.841766,247.518738 267.951477,246.220230 
	C265.599335,245.595657 262.140656,246.567627 260.057922,248.047684 
	C256.036926,250.905167 255.363113,258.238220 257.973541,262.708130 
	C260.721985,267.414429 265.865540,269.129395 271.393097,267.164185 
	C272.464935,266.783112 273.513031,266.335114 274.610901,265.902710 
	C275.572998,271.948517 271.531891,274.642242 264.785126,272.906464 
	C263.238953,272.508698 261.467438,272.986633 259.799652,273.061554 
	C267.122253,280.155121 275.764099,278.127716 280.294250,269.743958 
	C282.701996,270.033020 284.831635,270.555298 286.922729,270.430817 
	C289.860260,270.255951 292.826996,269.017639 295.675446,269.300293 
	C299.132568,269.643341 302.479492,271.096558 305.874115,272.069458 
	C307.517059,273.370087 308.974152,275.236328 310.842712,275.850311 
	C314.427124,277.028015 314.446716,278.355865 312.401123,281.173920 
	C306.581635,289.190918 297.558411,289.695618 289.352020,289.781189 
	C245.550476,290.238068 201.741623,289.996979 157.549347,289.637878 
	C159.072464,288.501251 161.530838,288.227570 162.789719,286.854279 
	C166.908554,282.361206 174.211945,285.160492 178.127869,279.292572 
	C179.717392,276.910675 185.346542,277.585602 188.560379,275.819366 
	C191.449066,274.231842 193.547394,271.206207 196.337860,268.734863 
	C197.614349,268.714142 198.547363,268.773438 199.941498,268.874359 
	C201.777466,267.715393 203.152298,266.514801 204.873734,265.423157 
	C207.629318,266.153900 210.038300,266.775757 212.447296,267.397583 
	C212.575180,266.085693 212.703064,264.773773 212.984192,263.107269 
	C214.975311,261.435181 216.813171,260.117676 218.746643,259.151062 
	C218.107712,260.879608 217.365875,262.253418 216.641418,263.636353 
	C216.223068,264.434967 215.403412,265.343353 215.554810,266.027374 
	C215.696487,266.667511 216.874237,267.509796 217.607117,267.520752 
	C224.690765,267.626617 231.777512,267.620819 238.860977,267.502960 
	C239.607071,267.490570 240.607986,266.698822 240.981979,265.997406 
	C241.237076,265.518921 240.808350,264.102051 240.340912,263.899445 
	C234.724213,261.464752 237.874313,256.707825 237.864929,253.113998 
	C237.862061,252.014206 241.606430,250.655518 243.809296,250.033432 
	C244.196442,249.924103 245.930344,252.804749 246.192749,254.440826 
	C246.608871,257.035431 246.300476,259.744965 246.313248,262.405823 
	C246.337296,267.413818 247.799667,268.660156 252.525528,267.498627 
	C253.311401,267.305511 254.381119,266.509735 254.497971,265.847412 
	C254.614319,265.187988 253.683777,264.353363 253.234726,263.582520 
	C252.447968,262.231903 251.267761,260.947266 250.999374,259.496796 
	C250.612442,257.405640 250.983017,255.186310 250.871231,253.029922 
	C250.569565,247.211029 248.356873,245.436508 242.605286,246.071457 
	C240.754456,246.275772 238.864700,246.127441 237.000488,245.763184 
	C240.385773,241.393845 243.694321,237.340515 247.164368,233.430542 
	C249.607849,230.677292 254.851044,229.451569 251.997360,224.007324 
z"/>
<path fill="#111111" opacity="1.000000" stroke="none" 
	d="
M111.019562,260.990234 
	C111.014259,250.695068 111.342087,240.384491 110.867050,230.111038 
	C110.619118,224.749100 112.581123,223.867126 117.383446,223.900681 
	C146.939163,224.107224 176.497009,224.009644 206.536499,224.387726 
	C208.698593,226.259903 210.378357,227.757614 212.163269,229.349075 
	C209.583130,230.698898 206.099396,231.662155 203.915390,233.896103 
	C201.543259,236.322449 199.327637,237.436859 195.677612,236.945648 
	C193.898193,236.926270 192.536224,236.733200 191.260406,236.981918 
	C190.130936,237.202118 189.097305,237.913895 188.021378,238.408661 
	C188.789154,239.233398 189.656357,239.988373 190.297287,240.902100 
	C190.963669,241.852051 191.794571,242.924866 191.880112,243.997665 
	C192.103149,246.794586 192.181412,249.642868 191.907776,252.430450 
	C191.473923,256.850433 194.229324,262.304474 188.110992,265.090057 
	C187.819061,265.222992 187.975647,266.341064 187.632004,267.132812 
	C186.729279,267.415161 186.117889,267.565033 185.684692,267.340546 
	C185.765060,266.039398 185.846344,264.371979 185.542191,264.298401 
	C181.797714,263.392944 182.680466,260.493622 182.624130,257.988708 
	C182.583313,256.173645 182.569458,254.357651 182.502853,252.543579 
	C182.338364,248.064209 179.744324,245.831558 175.517426,245.909271 
	C171.339371,245.986084 166.237564,244.747421 164.607239,251.011780 
	C163.522263,250.680374 162.764603,250.354324 162.131104,249.688431 
	C162.050919,244.789978 159.769623,244.469315 153.657959,247.539551 
	C150.987961,246.792038 148.285446,246.452591 145.574661,246.363144 
	C145.191483,246.350494 144.347153,248.057175 144.426331,248.123795 
	C145.650253,249.153076 146.991638,250.042694 148.601089,251.171844 
	C148.601089,253.816849 148.601089,256.911743 148.266937,259.937744 
	C145.760986,259.914948 143.589157,259.960999 141.330566,259.614502 
	C140.034241,256.302979 138.824661,253.383972 137.973633,251.330261 
	C138.809952,248.512070 140.623505,245.753189 140.011642,243.726547 
	C138.922272,240.118256 136.397659,236.964310 131.752045,237.011246 
	C127.756836,237.051620 123.757614,236.866409 119.766205,236.984589 
	C118.813210,237.012817 117.884216,237.851822 116.944183,238.317902 
	C117.518166,239.143738 118.104828,239.961105 118.662941,240.797516 
	C119.379128,241.870819 120.650787,242.945450 120.677361,244.043839 
	C120.805984,249.359573 120.597427,254.683502 120.165161,260.024109 
	C116.887810,260.359192 113.953682,260.674713 111.019562,260.990234 
z"/>
<path fill="#0B0B0B" opacity="1.000000" stroke="none" 
	d="
M162.006958,250.028290 
	C162.764603,250.354324 163.522263,250.680374 164.960327,251.074524 
	C167.301041,250.767487 168.951157,250.149063 170.624176,250.079254 
	C172.673264,249.993744 174.912552,249.960358 176.726166,250.722092 
	C177.576874,251.079422 177.623001,253.352264 178.119659,255.050827 
	C175.165558,254.682785 173.022430,254.064240 170.941650,254.229752 
	C166.618851,254.573639 163.615372,258.078156 163.991638,261.828461 
	C164.376205,265.661499 168.291977,269.166077 172.210403,267.755646 
	C176.894226,266.069733 181.104477,268.028107 185.506516,267.714874 
	C186.117889,267.565033 186.729279,267.415161 187.873260,267.412903 
	C190.935379,267.978668 193.464874,268.396790 195.994370,268.814941 
	C193.547394,271.206207 191.449066,274.231842 188.560379,275.819366 
	C185.346542,277.585602 179.717392,276.910675 178.127869,279.292572 
	C174.211945,285.160492 166.908554,282.361206 162.789719,286.854279 
	C161.530838,288.227570 159.072464,288.501251 157.080536,289.635559 
	C143.251816,289.994232 129.504501,289.887848 115.760994,290.069397 
	C112.090477,290.117828 110.813446,289.007538 110.929344,285.278931 
	C111.171043,277.502594 111.004341,269.713562 111.012497,261.459991 
	C113.953682,260.674713 116.887810,260.359192 120.254372,260.370453 
	C120.118454,261.673004 119.635078,262.713531 118.955727,263.604675 
	C118.379166,264.360992 117.576355,264.944824 116.873657,265.604950 
	C117.867264,266.198364 118.839684,267.256012 119.858261,267.302551 
	C123.679962,267.477051 127.516823,267.329010 131.347855,267.287598 
	C136.414902,267.232819 139.945618,265.040588 141.417343,260.007050 
	C143.589157,259.960999 145.760986,259.914948 148.360443,260.307220 
	C147.993713,261.793610 147.232697,262.869354 146.393967,263.880615 
	C145.773575,264.628632 145.052002,265.292725 144.375488,265.994171 
	C145.267319,266.522858 146.131302,267.441254 147.056183,267.507355 
	C149.854126,267.707336 152.685226,267.706512 155.482483,267.500244 
	C156.383118,267.433777 157.218857,266.487030 158.084290,265.943024 
	C157.339783,265.107147 156.634033,264.231995 155.839355,263.446869 
	C155.109070,262.725372 153.643936,262.142090 153.597824,261.427216 
	C153.127762,254.141418 153.329391,249.454895 162.006958,250.028290 
z"/>
<path fill="#060606" opacity="1.000000" stroke="none" 
	d="
M282.999695,245.983124 
	C281.378265,245.322296 279.809174,244.362473 278.123718,244.067200 
	C275.237457,243.561554 272.278412,243.471680 268.714050,243.149796 
	C273.637543,236.268372 277.776215,230.483856 281.956848,224.351166 
	C304.096008,224.002625 326.193359,223.968719 348.290314,224.046326 
	C350.906616,224.055511 353.611389,224.374985 356.101288,225.126556 
	C357.550140,225.563919 359.637604,227.123947 359.664093,228.221649 
	C359.697784,229.618134 358.160187,232.031006 356.911591,232.318436 
	C349.719818,233.973892 348.668427,239.055481 348.876770,245.650085 
	C348.754242,246.151321 348.481323,246.118057 348.071777,246.117996 
	C346.284454,248.519501 344.906647,250.921066 343.283661,253.143097 
	C341.759125,252.039169 340.479736,251.114761 339.091614,249.826309 
	C335.176056,246.002640 331.360077,247.443420 327.359131,249.646469 
	C325.954865,251.342712 324.734528,252.833206 323.197266,254.129242 
	C322.188812,253.262024 321.497253,252.589264 320.962433,251.546280 
	C323.242462,243.891068 320.990173,238.004196 315.210815,237.290207 
	C309.979919,236.643967 304.620697,236.969177 299.320038,237.033218 
	C298.585114,237.042084 297.412506,237.908768 297.263672,238.564667 
	C297.124115,239.179642 298.097412,240.028030 298.538574,240.798019 
	C299.386017,242.277161 300.647156,243.695267 300.926819,245.281464 
	C301.322845,247.527603 300.985687,249.903000 300.521179,252.152740 
	C297.884521,251.961014 295.654877,252.037537 293.500366,251.671799 
	C290.301758,251.128799 287.156311,250.272659 283.955688,249.168457 
	C283.615326,247.852463 283.307495,246.917801 282.999695,245.983124 
z"/>
<path fill="#0B0B0B" opacity="1.000000" stroke="none" 
	d="
M196.132538,236.964066 
	C199.327637,237.436859 201.543259,236.322449 203.915390,233.896103 
	C206.099396,231.662155 209.583130,230.698898 212.163269,229.349075 
	C210.378357,227.757614 208.698593,226.259903 207.004532,224.391083 
	C221.680344,224.014481 236.370483,224.009003 251.528992,224.005432 
	C254.851044,229.451569 249.607849,230.677292 247.164368,233.430542 
	C243.694321,237.340515 240.385773,241.393845 236.560333,245.743729 
	C233.644882,247.147812 228.423965,243.195206 228.751099,249.936523 
	C226.817230,249.603775 225.238602,249.294937 223.517654,248.590958 
	C221.835022,244.409241 218.795792,246.459396 216.303528,246.379730 
	C216.537292,247.658325 216.771042,248.936935 217.075577,250.549683 
	C217.634888,251.326035 218.123413,251.768265 218.676865,252.619034 
	C218.711517,254.951782 218.681274,256.875977 218.651031,258.800171 
	C216.813171,260.117676 214.975311,261.435181 212.628265,263.116577 
	C211.416962,263.388702 210.714859,263.296967 209.960449,262.848877 
	C208.951797,261.995636 207.995483,261.498749 206.726059,260.840454 
	C204.859650,259.467651 203.306351,258.256195 200.815964,256.313904 
	C205.116959,253.611221 208.278793,251.674316 211.376526,249.639862 
	C212.080383,249.177597 212.562241,248.377365 213.146271,247.732697 
	C212.453720,247.186615 211.805725,246.255356 211.059982,246.169083 
	C209.092194,245.941452 207.081329,246.044922 205.088776,246.080566 
	C200.375107,246.164841 200.107895,246.694244 202.612579,251.105072 
	C200.834808,252.444901 199.046066,253.793015 196.132538,255.988831 
	C196.132538,248.765671 196.132538,242.864868 196.132538,236.964066 
z"/>
<path fill="#F3F2F2" opacity="1.000000" stroke="none" 
	d="
M283.988220,249.549789 
	C287.156311,250.272659 290.301758,251.128799 293.500366,251.671799 
	C295.654877,252.037537 297.884521,251.961014 300.504181,252.598419 
	C300.927826,256.422607 300.927826,259.730713 300.927826,262.587891 
	C299.360840,263.715240 298.169891,264.572052 296.978973,265.428833 
	C297.615326,266.297577 298.252502,267.910858 298.887878,267.910156 
	C302.170685,267.906555 305.461914,267.559235 308.726257,267.143616 
	C309.225739,267.080048 309.815796,266.081909 309.956024,265.428436 
	C310.047485,265.002350 309.420013,263.983246 309.083374,263.969025 
	C302.893768,263.707611 305.633667,259.398071 305.285309,256.432251 
	C309.972565,255.674484 314.365265,254.964325 318.894409,254.521362 
	C319.614655,255.582733 320.198456,256.376923 320.977783,257.480408 
	C322.895203,258.446198 324.649750,258.165771 325.157867,261.249023 
	C325.761169,264.909637 332.641205,267.997894 336.514740,267.486267 
	C338.906342,267.170410 339.670135,265.917480 338.887268,263.738098 
	C340.097931,264.059937 341.060760,264.321533 342.339600,264.840454 
	C344.388855,265.611969 346.122101,266.126160 348.125885,266.928101 
	C350.570038,267.845947 352.743652,268.476074 354.917267,269.106232 
	C356.233276,269.786102 357.549316,270.466003 358.865326,271.145874 
	C358.844055,271.398132 358.822815,271.650360 358.801544,271.902618 
	C341.434601,271.902618 324.067627,271.902618 306.287415,271.986023 
	C302.479492,271.096558 299.132568,269.643341 295.675446,269.300293 
	C292.826996,269.017639 289.860260,270.255951 286.922729,270.430817 
	C284.831635,270.555298 282.701996,270.033020 280.308960,269.296631 
	C279.964539,264.154266 280.096252,259.500977 279.771240,254.879807 
	C279.537537,251.556915 280.885956,249.985291 283.988220,249.549789 
z"/>
<path fill="#535151" opacity="1.000000" stroke="none" 
	d="
M366.290588,267.763123 
	C364.456451,267.213531 363.048615,266.664093 361.640808,266.114685 
	C362.449768,265.091217 363.141693,263.939941 364.091400,263.070160 
	C366.230286,261.111328 365.834473,251.795319 363.529572,250.052811 
	C362.736389,249.453171 362.199829,248.514053 361.546082,247.729996 
	C362.407257,247.169571 363.234558,246.191925 364.135345,246.118713 
	C368.806824,245.739014 373.502930,245.337921 378.178772,245.446472 
	C381.490845,245.523361 383.810150,247.412094 383.914459,251.089401 
	C383.994568,253.912689 383.738037,256.767029 384.081787,259.551941 
	C384.244568,260.870544 385.460297,262.059631 386.200836,263.306274 
	C386.727997,264.193726 387.786621,265.184662 387.636810,265.935699 
	C387.490540,266.669128 386.177582,267.529266 385.263245,267.690643 
	C380.112823,268.599701 379.189758,267.748810 379.169586,262.475006 
	C379.158783,259.649780 379.509064,256.762604 379.020813,254.023834 
	C378.754028,252.527420 376.647156,249.980377 376.115936,250.156525 
	C374.166779,250.802795 371.079559,252.362793 371.054352,253.631119 
	C370.985413,257.104340 368.256805,261.787750 373.804108,263.853455 
	C373.269348,265.140961 373.033356,267.197540 372.134186,267.546844 
	C370.540802,268.165771 368.544556,267.747559 366.290588,267.763123 
z"/>
<path fill="#535151" opacity="1.000000" stroke="none" 
	d="
M398.048370,245.834534 
	C401.527679,246.880676 401.848694,248.193085 399.020691,250.000336 
	C395.751404,252.089569 395.841003,261.240356 399.047485,263.503479 
	C399.827179,264.053802 400.893097,265.595734 400.692383,265.879761 
	C400.053650,266.783722 398.927765,267.792664 397.904144,267.894196 
	C394.342743,268.247437 392.144379,266.653992 392.107788,262.810333 
	C392.082428,260.146576 392.114594,257.481964 392.063812,254.818832 
	C392.041748,253.661972 392.141571,252.395050 391.710602,251.379944 
	C391.119171,249.986908 389.055084,248.203964 389.398865,247.600876 
	C391.085785,244.641403 393.361511,242.017532 395.991272,238.529602 
	C396.737915,241.726074 397.203217,243.718033 398.048370,245.834534 
z"/>
<path fill="#535151" opacity="1.000000" stroke="none" 
	d="
M355.075134,268.740417 
	C352.743652,268.476074 350.570038,267.845947 348.190613,266.559021 
	C349.114410,263.452393 350.860260,261.089417 351.220764,258.531219 
	C351.691864,255.187729 352.376312,251.344299 348.520416,248.912964 
	C348.090759,248.642044 348.474701,247.080872 348.481323,246.118057 
	C348.481323,246.118057 348.754242,246.151321 348.876160,246.087921 
	C350.161957,246.026077 351.338745,246.139557 352.487366,246.007812 
	C355.666351,245.643234 357.096863,246.795303 356.829956,250.171356 
	C356.594757,253.145782 356.732330,256.154419 356.801147,259.145752 
	C356.827240,260.280151 356.707092,261.977753 357.357635,262.451172 
	C363.689728,267.059113 358.228394,267.244720 355.075134,268.740417 
z"/>
<path fill="#060606" opacity="1.000000" stroke="none" 
	d="
M42.999924,415.000000 
	C42.705212,415.492371 42.410580,415.984711 42.115948,416.477081 
	C41.915813,416.305237 41.715679,416.133392 41.515541,415.961548 
	C41.827927,415.667267 42.140312,415.372986 42.726425,415.039368 
	C43.000153,415.000000 43.000000,415.000000 42.999924,415.000000 
z"/>
<path fill="#040404" opacity="1.000000" stroke="none" 
	d="
M395.704895,62.828480 
	C394.854218,63.065525 394.082825,62.976986 393.311462,62.888451 
	C393.428040,62.446495 393.544586,62.004536 393.661163,61.562576 
	C394.368835,61.876015 395.076508,62.189457 395.704895,62.828480 
z"/>
<path fill="#DF2222" opacity="1.000000" stroke="none" 
	d="
M218.746643,259.151062 
	C218.681274,256.875977 218.711517,254.951782 218.773376,252.347656 
	C218.204926,251.183655 217.604858,250.699585 217.004807,250.215530 
	C216.771042,248.936935 216.537292,247.658325 216.303528,246.379730 
	C218.795792,246.459396 221.835022,244.409241 223.384369,249.003281 
	C223.427292,253.118912 223.671860,256.442047 223.438354,259.731232 
	C223.182434,263.336334 225.579376,264.067657 228.059433,263.927216 
	C230.242065,263.803650 233.322861,263.879059 232.893478,259.959198 
	C232.660538,257.832581 232.687637,255.643097 232.895203,253.510925 
	C233.186691,250.516754 231.734085,249.685898 229.106323,249.960449 
	C228.423965,243.195206 233.644882,247.147812 236.552612,246.121002 
	C238.864700,246.127441 240.754456,246.275772 242.605286,246.071457 
	C248.356873,245.436508 250.569565,247.211029 250.871231,253.029922 
	C250.983017,255.186310 250.612442,257.405640 250.999374,259.496796 
	C251.267761,260.947266 252.447968,262.231903 253.234726,263.582520 
	C253.683777,264.353363 254.614319,265.187988 254.497971,265.847412 
	C254.381119,266.509735 253.311401,267.305511 252.525528,267.498627 
	C247.799667,268.660156 246.337296,267.413818 246.313248,262.405823 
	C246.300476,259.744965 246.608871,257.035431 246.192749,254.440826 
	C245.930344,252.804749 244.196442,249.924103 243.809296,250.033432 
	C241.606430,250.655518 237.862061,252.014206 237.864929,253.113998 
	C237.874313,256.707825 234.724213,261.464752 240.340912,263.899445 
	C240.808350,264.102051 241.237076,265.518921 240.981979,265.997406 
	C240.607986,266.698822 239.607071,267.490570 238.860977,267.502960 
	C231.777512,267.620819 224.690765,267.626617 217.607117,267.520752 
	C216.874237,267.509796 215.696487,266.667511 215.554810,266.027374 
	C215.403412,265.343353 216.223068,264.434967 216.641418,263.636353 
	C217.365875,262.253418 218.107712,260.879608 218.746643,259.151062 
M227.247330,265.478912 
	C227.446304,265.564819 227.645294,265.650757 227.844269,265.736664 
	C227.791092,265.517059 227.737915,265.297455 227.247330,265.478912 
z"/>
<path fill="#DF2222" opacity="1.000000" stroke="none" 
	d="
M283.955688,249.168457 
	C280.885956,249.985291 279.537537,251.556915 279.771240,254.879807 
	C280.096252,259.500977 279.964539,264.154266 280.013611,269.241150 
	C275.764099,278.127716 267.122253,280.155121 259.799652,273.061554 
	C261.467438,272.986633 263.238953,272.508698 264.785126,272.906464 
	C271.531891,274.642242 275.572998,271.948517 274.610901,265.902710 
	C273.513031,266.335114 272.464935,266.783112 271.393097,267.164185 
	C265.865540,269.129395 260.721985,267.414429 257.973541,262.708130 
	C255.363113,258.238220 256.036926,250.905167 260.057922,248.047684 
	C262.140656,246.567627 265.599335,245.595657 267.951477,246.220230 
	C272.841766,247.518738 277.433167,245.884964 282.571716,246.034637 
	C283.307495,246.917801 283.615326,247.852463 283.955688,249.168457 
M271.915344,262.840515 
	C275.276886,260.924927 276.291077,258.156250 274.795502,253.866547 
	C271.899017,249.798294 268.388031,248.604172 264.857849,250.486649 
	C261.657318,252.193344 260.120880,256.535370 261.893036,259.893707 
	C263.933502,263.760468 267.054932,265.262756 271.915344,262.840515 
z"/>
<path fill="#DF2222" opacity="1.000000" stroke="none" 
	d="
M210.012756,263.205200 
	C210.714859,263.296967 211.416962,263.388702 212.475006,263.471191 
	C212.703064,264.773773 212.575180,266.085693 212.447296,267.397583 
	C210.038300,266.775757 207.629318,266.153900 204.858398,265.434052 
	C204.496460,265.336029 204.470886,265.314667 204.403870,265.016541 
	C202.332886,262.204132 200.328903,259.689850 198.324921,257.175537 
	C197.660034,257.665253 196.995148,258.154968 196.330276,258.644653 
	C196.769623,260.168884 196.985703,261.812714 197.718277,263.179810 
	C198.314728,264.292847 199.529587,265.074493 200.309830,266.344604 
	C199.926422,267.401642 199.703400,268.117218 199.480377,268.832764 
	C198.547363,268.773438 197.614349,268.714142 196.337860,268.734863 
	C193.464874,268.396790 190.935379,267.978668 188.164612,267.280426 
	C187.975647,266.341064 187.819061,265.222992 188.110992,265.090057 
	C194.229324,262.304474 191.473923,256.850433 191.907776,252.430450 
	C192.181412,249.642868 192.103149,246.794586 191.880112,243.997665 
	C191.794571,242.924866 190.963669,241.852051 190.297287,240.902100 
	C189.656357,239.988373 188.789154,239.233398 188.021378,238.408661 
	C189.097305,237.913895 190.130936,237.202118 191.260406,236.981918 
	C192.536224,236.733200 193.898193,236.926270 195.677612,236.945648 
	C196.132538,242.864868 196.132538,248.765671 196.132538,255.988831 
	C199.046066,253.793015 200.834808,252.444901 202.612579,251.105072 
	C200.107895,246.694244 200.375107,246.164841 205.088776,246.080566 
	C207.081329,246.044922 209.092194,245.941452 211.059982,246.169083 
	C211.805725,246.255356 212.453720,247.186615 213.146271,247.732697 
	C212.562241,248.377365 212.080383,249.177597 211.376526,249.639862 
	C208.278793,251.674316 205.116959,253.611221 200.815964,256.313904 
	C203.306351,258.256195 204.859650,259.467651 206.867371,261.132477 
	C208.218765,262.125641 209.115753,262.665405 210.012756,263.205200 
z"/>
<path fill="#0B0B0B" opacity="1.000000" stroke="none" 
	d="
M199.941498,268.874359 
	C199.703400,268.117218 199.926422,267.401642 200.713974,266.341003 
	C202.342636,265.768799 203.406754,265.541718 204.470886,265.314667 
	C204.470886,265.314667 204.496460,265.336029 204.511795,265.325134 
	C203.152298,266.514801 201.777466,267.715393 199.941498,268.874359 
z"/>
<path fill="#DF2222" opacity="1.000000" stroke="none" 
	d="
M141.330566,259.614502 
	C139.945618,265.040588 136.414902,267.232819 131.347855,267.287598 
	C127.516823,267.329010 123.679962,267.477051 119.858261,267.302551 
	C118.839684,267.256012 117.867264,266.198364 116.873657,265.604950 
	C117.576355,264.944824 118.379166,264.360992 118.955727,263.604675 
	C119.635078,262.713531 120.118454,261.673004 120.597603,260.350891 
	C120.597427,254.683502 120.805984,249.359573 120.677361,244.043839 
	C120.650787,242.945450 119.379128,241.870819 118.662941,240.797516 
	C118.104828,239.961105 117.518166,239.143738 116.944183,238.317902 
	C117.884216,237.851822 118.813210,237.012817 119.766205,236.984589 
	C123.757614,236.866409 127.756836,237.051620 131.752045,237.011246 
	C136.397659,236.964310 138.922272,240.118256 140.011642,243.726547 
	C140.623505,245.753189 138.809952,248.512070 137.973633,251.330261 
	C138.824661,253.383972 140.034241,256.302979 141.330566,259.614502 
M133.388443,263.003387 
	C134.197052,260.775513 135.005676,258.547668 135.814285,256.319794 
	C133.036194,255.330139 130.294205,254.155045 127.431938,253.597733 
	C127.093933,253.531906 125.580772,256.830231 125.500366,258.609222 
	C125.250504,264.137360 125.539749,264.223938 133.388443,263.003387 
M125.407318,246.153076 
	C125.023582,249.625549 127.072571,249.945557 129.730072,249.500702 
	C132.552124,249.028290 135.527802,247.829895 134.518829,244.675232 
	C133.966034,242.946854 130.863953,241.512787 128.655991,240.952484 
	C125.011383,240.027603 125.414246,243.025360 125.407318,246.153076 
z"/>
<path fill="#DF2222" opacity="1.000000" stroke="none" 
	d="
M185.684692,267.340546 
	C181.104477,268.028107 176.894226,266.069733 172.210403,267.755646 
	C168.291977,269.166077 164.376205,265.661499 163.991638,261.828461 
	C163.615372,258.078156 166.618851,254.573639 170.941650,254.229752 
	C173.022430,254.064240 175.165558,254.682785 178.119659,255.050827 
	C177.623001,253.352264 177.576874,251.079422 176.726166,250.722092 
	C174.912552,249.960358 172.673264,249.993744 170.624176,250.079254 
	C168.951157,250.149063 167.301041,250.767487 165.287674,251.079910 
	C166.237564,244.747421 171.339371,245.986084 175.517426,245.909271 
	C179.744324,245.831558 182.338364,248.064209 182.502853,252.543579 
	C182.569458,254.357651 182.583313,256.173645 182.624130,257.988708 
	C182.680466,260.493622 181.797714,263.392944 185.542191,264.298401 
	C185.846344,264.371979 185.765060,266.039398 185.684692,267.340546 
M177.320847,262.682129 
	C176.779053,261.152405 176.519791,258.543579 175.637955,258.312714 
	C173.670181,257.797546 171.273804,258.143768 169.310883,258.854156 
	C168.715027,259.069794 168.398117,262.617340 168.936676,262.926605 
	C170.559357,263.858398 172.651443,264.082489 174.591797,264.290619 
	C175.252960,264.361511 176.007080,263.565735 177.320847,262.682129 
z"/>
<path fill="#DF2222" opacity="1.000000" stroke="none" 
	d="
M162.131104,249.688431 
	C153.329391,249.454895 153.127762,254.141418 153.597824,261.427216 
	C153.643936,262.142090 155.109070,262.725372 155.839355,263.446869 
	C156.634033,264.231995 157.339783,265.107147 158.084290,265.943024 
	C157.218857,266.487030 156.383118,267.433777 155.482483,267.500244 
	C152.685226,267.706512 149.854126,267.707336 147.056183,267.507355 
	C146.131302,267.441254 145.267319,266.522858 144.375488,265.994171 
	C145.052002,265.292725 145.773575,264.628632 146.393967,263.880615 
	C147.232697,262.869354 147.993713,261.793610 148.694580,260.376099 
	C148.601089,256.911743 148.601089,253.816849 148.601089,251.171844 
	C146.991638,250.042694 145.650253,249.153076 144.426331,248.123795 
	C144.347153,248.057175 145.191483,246.350494 145.574661,246.363144 
	C148.285446,246.452591 150.987961,246.792038 153.657959,247.539551 
	C159.769623,244.469315 162.050919,244.789978 162.131104,249.688431 
z"/>
<path fill="#535151" opacity="1.000000" stroke="none" 
	d="
M318.757996,254.254150 
	C314.365265,254.964325 309.972565,255.674484 305.285309,256.432251 
	C305.633667,259.398071 302.893768,263.707611 309.083374,263.969025 
	C309.420013,263.983246 310.047485,265.002350 309.956024,265.428436 
	C309.815796,266.081909 309.225739,267.080048 308.726257,267.143616 
	C305.461914,267.559235 302.170685,267.906555 298.887878,267.910156 
	C298.252502,267.910858 297.615326,266.297577 296.978973,265.428833 
	C298.169891,264.572052 299.360840,263.715240 300.927826,262.587891 
	C300.927826,259.730713 300.927826,256.422607 300.944824,252.668823 
	C300.985687,249.903000 301.322845,247.527603 300.926819,245.281464 
	C300.647156,243.695267 299.386017,242.277161 298.538574,240.798019 
	C298.097412,240.028030 297.124115,239.179642 297.263672,238.564667 
	C297.412506,237.908768 298.585114,237.042084 299.320038,237.033218 
	C304.620697,236.969177 309.979919,236.643967 315.210815,237.290207 
	C320.990173,238.004196 323.242462,243.891068 320.706970,251.727295 
	C319.782501,252.937088 319.270233,253.595612 318.757996,254.254150 
M306.045898,247.106461 
	C306.210297,248.484741 306.374725,249.863007 306.468292,250.647293 
	C308.845947,250.647293 310.601593,250.339813 312.199615,250.711029 
	C315.574554,251.494980 316.821472,250.006454 317.002197,246.934067 
	C317.249573,242.728409 315.184692,241.146652 311.077240,240.812698 
	C306.628418,240.451004 305.500580,242.384842 306.045898,247.106461 
z"/>
<path fill="#535151" opacity="1.000000" stroke="none" 
	d="
M338.639404,263.677887 
	C339.670135,265.917480 338.906342,267.170410 336.514740,267.486267 
	C332.641205,267.997894 325.761169,264.909637 325.157867,261.249023 
	C324.649750,258.165771 322.895203,258.446198 321.356079,257.431091 
	C322.197357,256.156219 322.855774,255.239960 323.514191,254.323715 
	C324.734528,252.833206 325.954865,251.342712 327.429565,249.990387 
	C328.855194,250.528061 329.999939,251.061478 331.203156,251.299500 
	C333.813171,251.815842 336.453064,252.181168 339.406433,252.803101 
	C343.167755,257.826996 342.924683,260.202393 338.639404,263.677887 
M332.377258,258.756165 
	C332.737671,259.480042 333.098083,260.203918 333.458527,260.927795 
	C333.967560,260.318634 334.476624,259.709473 334.866943,258.576813 
	C334.660370,258.227356 334.453827,257.877930 334.247253,257.528503 
	C333.870178,257.899841 333.493103,258.271179 332.377258,258.756165 
z"/>
<path fill="#000000" opacity="1.000000" stroke="none" 
	d="
M348.071777,246.117996 
	C348.474701,247.080872 348.090759,248.642044 348.520416,248.912964 
	C352.376312,251.344299 351.691864,255.187729 351.220764,258.531219 
	C350.860260,261.089417 349.114410,263.452393 347.920074,266.271301 
	C346.122101,266.126160 344.388855,265.611969 342.550110,264.649628 
	C342.825409,263.786591 343.206207,263.371674 343.980774,262.926086 
	C348.005096,258.669708 347.779114,255.549500 343.643188,253.320908 
	C343.606323,253.333939 343.528870,253.322632 343.528870,253.322632 
	C344.906647,250.921066 346.284454,248.519501 348.071777,246.117996 
z"/>
<path fill="#DF2222" opacity="1.000000" stroke="none" 
	d="
M343.586975,262.956787 
	C343.206207,263.371674 342.825409,263.786591 342.234131,264.392334 
	C341.060760,264.321533 340.097931,264.059937 338.887268,263.738098 
	C342.924683,260.202393 343.167755,257.826996 339.455872,252.506958 
	C339.186493,251.407410 339.193451,250.798874 339.200378,250.190353 
	C340.479736,251.114761 341.759125,252.039169 343.283691,253.143097 
	C343.528870,253.322632 343.606323,253.333939 343.678040,253.686340 
	C343.695465,257.011414 343.641205,259.984100 343.586975,262.956787 
z"/>
<path fill="#181818" opacity="1.000000" stroke="none" 
	d="
M339.091614,249.826309 
	C339.193451,250.798874 339.186493,251.407410 339.130157,252.312073 
	C336.453064,252.181168 333.813171,251.815842 331.203156,251.299500 
	C329.999939,251.061478 328.855194,250.528061 327.613495,249.784637 
	C331.360077,247.443420 335.176056,246.002640 339.091614,249.826309 
z"/>
<path fill="#0B0B0B" opacity="1.000000" stroke="none" 
	d="
M323.197266,254.129242 
	C322.855774,255.239960 322.197357,256.156219 321.160614,257.121765 
	C320.198456,256.376923 319.614655,255.582733 318.894409,254.521347 
	C319.270233,253.595612 319.782501,252.937088 320.550232,252.097534 
	C321.497253,252.589264 322.188812,253.262024 323.197266,254.129242 
z"/>
<path fill="#080808" opacity="1.000000" stroke="none" 
	d="
M228.751099,249.936523 
	C231.734085,249.685898 233.186691,250.516754 232.895203,253.510925 
	C232.687637,255.643097 232.660538,257.832581 232.893478,259.959198 
	C233.322861,263.879059 230.242065,263.803650 228.059433,263.927216 
	C225.579376,264.067657 223.182434,263.336334 223.438354,259.731232 
	C223.671860,256.442047 223.427292,253.118912 223.526703,249.398422 
	C225.238602,249.294937 226.817230,249.603775 228.751099,249.936523 
z"/>
<path fill="#080808" opacity="1.000000" stroke="none" 
	d="
M209.960449,262.848877 
	C209.115753,262.665405 208.218765,262.125641 207.180450,261.293823 
	C207.995483,261.498749 208.951797,261.995636 209.960449,262.848877 
z"/>
<path fill="#080808" opacity="1.000000" stroke="none" 
	d="
M217.075577,250.549683 
	C217.604858,250.699585 218.204926,251.183655 218.708466,251.939087 
	C218.123413,251.768265 217.634888,251.326035 217.075577,250.549683 
z"/>
<path fill="#080808" opacity="1.000000" stroke="none" 
	d="
M227.466034,265.278381 
	C227.737915,265.297455 227.791092,265.517059 227.844269,265.736664 
	C227.645294,265.650757 227.446304,265.564819 227.466034,265.278381 
z"/>
<path fill="#0E0E0E" opacity="1.000000" stroke="none" 
	d="
M271.280090,263.045959 
	C267.054932,265.262756 263.933502,263.760468 261.893036,259.893707 
	C260.120880,256.535370 261.657318,252.193344 264.857849,250.486649 
	C268.388031,248.604172 271.899017,249.798294 274.505371,254.309509 
	C270.322693,256.485626 268.158569,258.830475 271.280090,263.045959 
z"/>
<path fill="#F3F2F2" opacity="1.000000" stroke="none" 
	d="
M271.597717,262.943237 
	C268.158569,258.830475 270.322693,256.485626 274.575989,254.639618 
	C276.291077,258.156250 275.276886,260.924927 271.597717,262.943237 
z"/>
<path fill="#080808" opacity="1.000000" stroke="none" 
	d="
M204.403870,265.016541 
	C203.406754,265.541718 202.342636,265.768799 200.874359,265.999512 
	C199.529587,265.074493 198.314728,264.292847 197.718277,263.179810 
	C196.985703,261.812714 196.769623,260.168884 196.330276,258.644653 
	C196.995148,258.154968 197.660034,257.665253 198.324921,257.175537 
	C200.328903,259.689850 202.332886,262.204132 204.403870,265.016541 
z"/>
<path fill="#141414" opacity="1.000000" stroke="none" 
	d="
M133.000000,263.114136 
	C125.539749,264.223938 125.250504,264.137360 125.500366,258.609222 
	C125.580772,256.830231 127.093933,253.531906 127.431938,253.597733 
	C130.294205,254.155045 133.036194,255.330139 135.814285,256.319794 
	C135.005676,258.547668 134.197052,260.775513 133.000000,263.114136 
z"/>
<path fill="#141414" opacity="1.000000" stroke="none" 
	d="
M125.407288,245.734802 
	C125.414246,243.025360 125.011383,240.027603 128.655991,240.952484 
	C130.863953,241.512787 133.966034,242.946854 134.518829,244.675232 
	C135.527802,247.829895 132.552124,249.028290 129.730072,249.500702 
	C127.072571,249.945557 125.023582,249.625549 125.407288,245.734802 
z"/>
<path fill="#141414" opacity="1.000000" stroke="none" 
	d="
M177.019791,262.924042 
	C176.007080,263.565735 175.252960,264.361511 174.591797,264.290619 
	C172.651443,264.082489 170.559357,263.858398 168.936676,262.926605 
	C168.398117,262.617340 168.715027,259.069794 169.310883,258.854156 
	C171.273804,258.143768 173.670181,257.797546 175.637955,258.312714 
	C176.519791,258.543579 176.779053,261.152405 177.019791,262.924042 
z"/>
<path fill="#0B0B0B" opacity="1.000000" stroke="none" 
	d="
M306.046143,246.679718 
	C305.500580,242.384842 306.628418,240.451004 311.077240,240.812698 
	C315.184692,241.146652 317.249573,242.728409 317.002197,246.934067 
	C316.821472,250.006454 315.574554,251.494980 312.199615,250.711029 
	C310.601593,250.339813 308.845947,250.647293 306.468292,250.647293 
	C306.374725,249.863007 306.210297,248.484741 306.046143,246.679718 
z"/>
<path fill="#F3F2F2" opacity="1.000000" stroke="none" 
	d="
M334.985687,259.100311 
	C334.476624,259.709473 333.967560,260.318634 333.458527,260.927795 
	C333.098083,260.203918 332.737671,259.480042 333.009583,258.931366 
	C334.089813,259.104492 334.537750,259.102417 334.985687,259.100311 
z"/>
<path fill="#181818" opacity="1.000000" stroke="none" 
	d="
M334.926331,258.838562 
	C334.537750,259.102417 334.089813,259.104492 333.378937,258.874573 
	C333.493103,258.271179 333.870178,257.899841 334.247253,257.528503 
	C334.453827,257.877930 334.660370,258.227356 334.926331,258.838562 
z"/>
<path fill="#060606" opacity="1.000000" stroke="none" 
	d="
M343.980743,262.926086 
	C343.641205,259.984100 343.695465,257.011414 343.714905,253.673309 
	C347.779114,255.549500 348.005096,258.669708 343.980743,262.926086 
z"/>
</svg>